<svg id="Camera" xmlns="http://www.w3.org/2000/svg" viewBox="0 0 800 800"><defs><style>.cls-1{fill:#73ffc7;}.cls-2{fill:#fff;}</style></defs><title>cameralogonc</title><path class="cls-1" d="M702.82,332.19a26.25,26.25,0,1,1,26.25-26.25A26.25,26.25,0,0,1,702.82,332.19Zm18.95-92.6-121.62.07a9.72,9.72,0,0,1-8.61-5.43l-30.79-64.14A27,27,0,0,0,536.55,155H311.28c-8.07,0-15.4,5.89-19,13.13l-31,67.73a9.28,9.28,0,0,1-8.33,5.18h-8.56a6.08,6.08,0,0,1-6.08-6.08v-4.71a14.21,14.21,0,0,0-14-14.21L146.2,215a14.11,14.11,0,0,0-14.29,14.1v12H120.24a52.49,52.49,0,0,0-52.49,52.5v340.5A53.39,53.39,0,0,0,121,687.28h600.8A53.39,53.39,0,0,0,775,634.05V292.82A53.38,53.38,0,0,0,721.77,239.59ZM419.92,639.88c-105.51,0-191-85.52-191-191s85.53-191,191-191,191,85.53,191,191S525.42,639.88,419.92,639.88Z"/><path class="cls-1" d="M419.92,549.47A100.62,100.62,0,1,1,520.53,448.85,100.61,100.61,0,0,1,419.92,549.47Zm1.45-243.53A142.91,142.91,0,1,0,564.28,448.85,142.91,142.91,0,0,0,421.37,305.94Z"/><path class="cls-1" d="M700.73,330.18A26.25,26.25,0,1,1,727,303.93,26.25,26.25,0,0,1,700.73,330.18Zm19-92.6-121.63.07a9.72,9.72,0,0,1-8.6-5.43l-30.79-64.14A27,27,0,0,0,534.47,153H309.19c-8.06,0-15.4,5.89-18.95,13.12l-31,67.73a9.26,9.26,0,0,1-8.32,5.19h-8.56a6.08,6.08,0,0,1-6.08-6.08v-4.72a14.2,14.2,0,0,0-14-14.2L144.11,213a14.1,14.1,0,0,0-14.28,14.09v12H118.16a52.5,52.5,0,0,0-52.5,52.49V632a53.39,53.39,0,0,0,53.23,53.22h600.8A53.38,53.38,0,0,0,772.92,632V290.8A53.38,53.38,0,0,0,719.69,237.58ZM417.83,637.87c-105.5,0-191-85.53-191-191s85.53-191,191-191,191,85.52,191,191S523.34,637.87,417.83,637.87Z"/><path class="cls-1" d="M417.83,547.46A100.62,100.62,0,1,1,518.45,446.84,100.62,100.62,0,0,1,417.83,547.46Zm1.46-243.53A142.91,142.91,0,1,0,562.2,446.84,142.91,142.91,0,0,0,419.29,303.93Z"/><path class="cls-1" d="M698.65,328.16a26.25,26.25,0,1,1,26.25-26.24A26.24,26.24,0,0,1,698.65,328.16Zm19-92.6L596,235.63a9.7,9.7,0,0,1-8.6-5.42l-30.8-64.15A27,27,0,0,0,532.38,151H307.11c-8.07,0-15.4,5.88-19,13.12l-31,67.73a9.28,9.28,0,0,1-8.32,5.18h-8.57A6.07,6.07,0,0,1,234.2,231v-4.72a14.22,14.22,0,0,0-14-14.21L142,211a14.09,14.09,0,0,0-14.29,14.09v12H116.08a52.5,52.5,0,0,0-52.5,52.5V630a53.38,53.38,0,0,0,53.23,53.23h600.8A53.38,53.38,0,0,0,770.83,630V288.79A53.39,53.39,0,0,0,717.61,235.56ZM415.75,635.85c-105.5,0-191-85.52-191-191s85.53-191,191-191,191,85.53,191,191S521.25,635.85,415.75,635.85Z"/><path class="cls-1" d="M415.75,545.44A100.62,100.62,0,1,1,516.37,444.82,100.62,100.62,0,0,1,415.75,545.44Zm1.46-243.52a142.91,142.91,0,1,0,142.91,142.9A142.9,142.9,0,0,0,417.21,301.92Z"/><path class="cls-1" d="M696.57,326.15a26.25,26.25,0,1,1,26.25-26.25A26.25,26.25,0,0,1,696.57,326.15Zm18.95-92.6-121.62.07a9.72,9.72,0,0,1-8.61-5.43L554.5,164.05A27,27,0,0,0,530.3,149H305c-8.07,0-15.4,5.89-19,13.13l-31,67.73a9.28,9.28,0,0,1-8.33,5.18h-8.56a6.08,6.08,0,0,1-6.08-6.08v-4.71a14.2,14.2,0,0,0-14-14.21L140,209a14.11,14.11,0,0,0-14.29,14.1v12H114a52.49,52.49,0,0,0-52.5,52.5V628a53.38,53.38,0,0,0,53.22,53.22h600.8A53.38,53.38,0,0,0,768.75,628V286.78A53.38,53.38,0,0,0,715.52,233.55ZM413.67,633.84c-105.51,0-191-85.53-191-191s85.53-191,191-191,191,85.53,191,191S519.17,633.84,413.67,633.84Z"/><path class="cls-1" d="M413.67,543.43A100.62,100.62,0,1,1,514.29,442.81,100.62,100.62,0,0,1,413.67,543.43Zm1.45-243.53A142.91,142.91,0,1,0,558,442.81,142.9,142.9,0,0,0,415.12,299.9Z"/><path class="cls-1" d="M694.48,324.14a26.25,26.25,0,1,1,26.25-26.25A26.25,26.25,0,0,1,694.48,324.14Zm19-92.6-121.63.07a9.74,9.74,0,0,1-8.6-5.43L552.42,162A27,27,0,0,0,528.22,147H302.94c-8.06,0-15.4,5.88-18.95,13.12l-31,67.73a9.28,9.28,0,0,1-8.32,5.19h-8.56a6.08,6.08,0,0,1-6.08-6.08V222.2A14.2,14.2,0,0,0,216,208l-78.16-1.06A14.08,14.08,0,0,0,123.58,221v12H111.91a52.5,52.5,0,0,0-52.5,52.49V626a53.39,53.39,0,0,0,53.23,53.23h600.8A53.38,53.38,0,0,0,766.67,626V284.76A53.38,53.38,0,0,0,713.44,231.54ZM411.58,631.83c-105.5,0-191-85.53-191-191s85.53-191,191-191,191,85.52,191,191S517.09,631.83,411.58,631.83Z"/><path class="cls-1" d="M411.58,541.42A100.62,100.62,0,1,1,512.2,440.8,100.62,100.62,0,0,1,411.58,541.42ZM413,297.89A142.91,142.91,0,1,0,556,440.8,142.91,142.91,0,0,0,413,297.89Z"/><path class="cls-1" d="M692.4,322.12a26.25,26.25,0,1,1,26.25-26.25A26.25,26.25,0,0,1,692.4,322.12Zm19-92.6-121.63.07a9.69,9.69,0,0,1-8.6-5.43L550.34,160a27,27,0,0,0-24.21-15.08H300.86c-8.07,0-15.4,5.89-19,13.13l-31,67.73a9.28,9.28,0,0,1-8.32,5.18H234a6.07,6.07,0,0,1-6.07-6.07v-4.72a14.22,14.22,0,0,0-14-14.21l-78.15-1A14.09,14.09,0,0,0,121.49,219v12H109.83a52.51,52.51,0,0,0-52.5,52.5V624a53.38,53.38,0,0,0,53.23,53.23h600.8A53.38,53.38,0,0,0,764.58,624V282.75A53.39,53.39,0,0,0,711.36,229.52ZM409.5,629.81c-105.5,0-191-85.52-191-191s85.53-191,191-191,191,85.53,191,191S515,629.81,409.5,629.81Z"/><path class="cls-1" d="M409.5,539.4A100.62,100.62,0,1,1,510.12,438.78,100.62,100.62,0,0,1,409.5,539.4ZM411,295.87A142.91,142.91,0,1,0,553.87,438.78,142.91,142.91,0,0,0,411,295.87Z"/><path class="cls-1" d="M690.32,320.11a26.25,26.25,0,1,1,26.25-26.25A26.25,26.25,0,0,1,690.32,320.11Zm18.95-92.6-121.62.07a9.72,9.72,0,0,1-8.61-5.43L548.25,158a27,27,0,0,0-24.2-15.08H298.78c-8.07,0-15.4,5.89-19,13.13l-31,67.72A9.27,9.27,0,0,1,240.5,229h-8.56a6.08,6.08,0,0,1-6.08-6.08v-4.72a14.2,14.2,0,0,0-14-14.2l-78.15-1.06A14.11,14.11,0,0,0,119.41,217v12H107.75a52.49,52.49,0,0,0-52.5,52.49V622a53.38,53.38,0,0,0,53.22,53.22h600.8A53.38,53.38,0,0,0,762.5,622V280.74A53.38,53.38,0,0,0,709.27,227.51ZM407.42,627.8c-105.51,0-191-85.53-191-191s85.52-191,191-191,191,85.53,191,191S512.92,627.8,407.42,627.8Z"/><path class="cls-1" d="M407.42,537.39A100.62,100.62,0,1,1,508,436.77,100.62,100.62,0,0,1,407.42,537.39Zm1.45-243.53A142.91,142.91,0,1,0,551.78,436.77,142.9,142.9,0,0,0,408.87,293.86Z"/><path class="cls-1" d="M688.23,318.09a26.25,26.25,0,1,1,26.25-26.24A26.24,26.24,0,0,1,688.23,318.09Zm19-92.59-121.63.06a9.71,9.71,0,0,1-8.6-5.42L546.17,156A27,27,0,0,0,522,140.92H296.69c-8.06,0-15.4,5.88-18.95,13.12l-31,67.73a9.27,9.27,0,0,1-8.32,5.18h-8.56a6.08,6.08,0,0,1-6.08-6.07v-4.72a14.21,14.21,0,0,0-14-14.21l-78.16-1A14.09,14.09,0,0,0,117.33,215v12H105.66a52.5,52.5,0,0,0-52.49,52.5V620a53.38,53.38,0,0,0,53.22,53.23h600.8A53.38,53.38,0,0,0,760.42,620V278.72A53.38,53.38,0,0,0,707.19,225.5ZM405.33,625.79c-105.5,0-191-85.53-191-191s85.53-191,191-191,191,85.53,191,191S510.84,625.79,405.33,625.79Z"/><path class="cls-1" d="M405.33,535.37A100.62,100.62,0,1,1,506,434.76,100.61,100.61,0,0,1,405.33,535.37Zm1.46-243.52A142.91,142.91,0,1,0,549.7,434.76,142.91,142.91,0,0,0,406.79,291.85Z"/><path class="cls-1" d="M686.15,316.08a26.25,26.25,0,1,1,26.25-26.25A26.25,26.25,0,0,1,686.15,316.08Zm19-92.6-121.63.07a9.69,9.69,0,0,1-8.6-5.43L544.09,154a27,27,0,0,0-24.21-15.08H294.61c-8.07,0-15.4,5.89-19,13.13l-31,67.73a9.28,9.28,0,0,1-8.32,5.18h-8.57a6.08,6.08,0,0,1-6.07-6.08v-4.71a14.21,14.21,0,0,0-14-14.21l-78.15-1.06A14.11,14.11,0,0,0,115.24,213v12H103.58a52.5,52.5,0,0,0-52.5,52.5v340.5a53.39,53.39,0,0,0,53.23,53.23h600.8a53.39,53.39,0,0,0,53.22-53.23V276.71A53.38,53.38,0,0,0,705.11,223.48ZM403.25,623.77c-105.5,0-191-85.53-191-191s85.53-191,191-191,191,85.53,191,191S508.75,623.77,403.25,623.77Z"/><path class="cls-1" d="M403.25,533.36A100.62,100.62,0,1,1,503.87,432.74,100.62,100.62,0,0,1,403.25,533.36Zm1.46-243.53A142.91,142.91,0,1,0,547.62,432.74,142.91,142.91,0,0,0,404.71,289.83Z"/><path class="cls-1" d="M684.07,314.07a26.25,26.25,0,1,1,26.25-26.25A26.25,26.25,0,0,1,684.07,314.07ZM703,221.47l-121.62.07a9.71,9.71,0,0,1-8.6-5.43L542,152a27,27,0,0,0-24.2-15.08H292.53c-8.07,0-15.4,5.89-19,13.12l-31,67.73a9.27,9.27,0,0,1-8.33,5.19h-8.56a6.08,6.08,0,0,1-6.08-6.08v-4.72a14.2,14.2,0,0,0-14-14.2l-78.15-1.06A14.1,14.1,0,0,0,113.16,211v12H101.5A52.49,52.49,0,0,0,49,275.42V615.93a53.38,53.38,0,0,0,53.22,53.22H703a53.38,53.38,0,0,0,53.23-53.22V274.69A53.38,53.38,0,0,0,703,221.47ZM401.17,621.76c-105.51,0-191-85.53-191-191s85.52-191,191-191,191,85.52,191,191S506.67,621.76,401.17,621.76Z"/><path class="cls-1" d="M401.17,531.35A100.62,100.62,0,1,1,501.79,430.73,100.62,100.62,0,0,1,401.17,531.35Zm1.45-243.53A142.91,142.91,0,1,0,545.53,430.73,142.9,142.9,0,0,0,402.62,287.82Z"/><path class="cls-1" d="M682,312.05a26.25,26.25,0,1,1,26.25-26.25A26.24,26.24,0,0,1,682,312.05Zm19-92.6-121.62.07a9.72,9.72,0,0,1-8.61-5.42L539.92,150a27,27,0,0,0-24.2-15.07H290.44c-8.06,0-15.4,5.88-18.95,13.12l-31,67.73a9.27,9.27,0,0,1-8.32,5.18h-8.56a6.08,6.08,0,0,1-6.08-6.07v-4.72a14.21,14.21,0,0,0-14-14.21l-78.16-1A14.09,14.09,0,0,0,111.08,209v12H99.41a52.5,52.5,0,0,0-52.49,52.5v340.5a53.38,53.38,0,0,0,53.22,53.23h600.8a53.38,53.38,0,0,0,53.23-53.23V272.68A53.39,53.39,0,0,0,700.94,219.45ZM399.08,619.74c-105.5,0-191-85.52-191-191s85.53-191,191-191,191,85.53,191,191S504.59,619.74,399.08,619.74Z"/><path class="cls-1" d="M399.08,529.33A100.62,100.62,0,1,1,499.7,428.71,100.62,100.62,0,0,1,399.08,529.33Zm1.46-243.53A142.91,142.91,0,1,0,543.45,428.71,142.92,142.92,0,0,0,400.54,285.8Z"/><path class="cls-1" d="M679.9,310a26.25,26.25,0,1,1,26.25-26.25A26.25,26.25,0,0,1,679.9,310Zm19-92.6-121.63.07a9.69,9.69,0,0,1-8.6-5.43l-30.79-64.14a27,27,0,0,0-24.21-15.08H288.36c-8.07,0-15.4,5.89-19,13.13l-31,67.73a9.28,9.28,0,0,1-8.32,5.18h-8.57a6.08,6.08,0,0,1-6.07-6.08V208.1a14.2,14.2,0,0,0-14-14.2l-78.15-1.06A14.1,14.1,0,0,0,109,206.94v12H97.33a52.5,52.5,0,0,0-52.5,52.5V611.9a53.38,53.38,0,0,0,53.23,53.22h600.8a53.38,53.38,0,0,0,53.22-53.22V270.67A53.38,53.38,0,0,0,698.86,217.44ZM397,617.73c-105.5,0-191-85.53-191-191s85.53-191,191-191,191,85.53,191,191S502.5,617.73,397,617.73Z"/><path class="cls-1" d="M397,527.32A100.62,100.62,0,1,1,497.62,426.7,100.62,100.62,0,0,1,397,527.32Zm1.46-243.53A142.91,142.91,0,1,0,541.37,426.7,142.91,142.91,0,0,0,398.46,283.79Z"/><path class="cls-1" d="M677.82,308a26.25,26.25,0,1,1,26.25-26.25A26.25,26.25,0,0,1,677.82,308Zm19-92.6-121.63.07a9.73,9.73,0,0,1-8.6-5.43l-30.8-64.15a27,27,0,0,0-24.2-15.07H286.28c-8.07,0-15.4,5.88-19,13.12l-31,67.73a9.29,9.29,0,0,1-8.33,5.19h-8.56a6.08,6.08,0,0,1-6.08-6.08v-4.72a14.2,14.2,0,0,0-14-14.2l-78.15-1.06a14.09,14.09,0,0,0-14.29,14.09v12H95.25a52.49,52.49,0,0,0-52.5,52.49v340.5A53.38,53.38,0,0,0,96,663.11h600.8A53.38,53.38,0,0,0,750,609.88V268.65A53.38,53.38,0,0,0,696.78,215.43ZM394.92,615.72c-105.51,0-191-85.53-191-191s85.52-191,191-191,191,85.52,191,191S500.42,615.72,394.92,615.72Z"/><path class="cls-1" d="M394.92,525.31A100.62,100.62,0,1,1,495.54,424.69,100.62,100.62,0,0,1,394.92,525.31Zm1.46-243.53a142.91,142.91,0,1,0,142.9,142.91A142.91,142.91,0,0,0,396.38,281.78Z"/><path class="cls-1" d="M675.73,306A26.25,26.25,0,1,1,702,279.76,26.24,26.24,0,0,1,675.73,306Zm19-92.6-121.62.07a9.71,9.71,0,0,1-8.61-5.43l-30.79-64.14a27,27,0,0,0-24.2-15.08H284.19c-8.06,0-15.4,5.89-18.95,13.13l-31,67.73a9.26,9.26,0,0,1-8.32,5.18h-8.56a6.08,6.08,0,0,1-6.08-6.07v-4.72a14.21,14.21,0,0,0-14-14.21l-78.16-1.05a14.09,14.09,0,0,0-14.28,14.09v12H93.16a52.5,52.5,0,0,0-52.49,52.5v340.5A53.39,53.39,0,0,0,93.89,661.1h600.8a53.39,53.39,0,0,0,53.23-53.23V266.64A53.38,53.38,0,0,0,694.69,213.41ZM392.83,613.7c-105.5,0-191-85.52-191-191s85.53-191,191-191,191,85.53,191,191S498.34,613.7,392.83,613.7Z"/><path class="cls-1" d="M392.83,523.29A100.62,100.62,0,1,1,493.45,422.67,100.62,100.62,0,0,1,392.83,523.29Zm1.46-243.53A142.91,142.91,0,1,0,537.2,422.67,142.92,142.92,0,0,0,394.29,279.76Z"/><path class="cls-1" d="M673.65,304a26.25,26.25,0,1,1,26.25-26.25A26.25,26.25,0,0,1,673.65,304Zm19-92.6L571,211.47a9.69,9.69,0,0,1-8.6-5.43L531.59,141.9a27,27,0,0,0-24.21-15.08H282.11c-8.06,0-15.4,5.89-19,13.12l-31,67.73a9.27,9.27,0,0,1-8.32,5.19h-8.57a6.08,6.08,0,0,1-6.07-6.08v-4.72a14.2,14.2,0,0,0-14-14.2L117,186.8a14.1,14.1,0,0,0-14.28,14.1v12H91.08a52.5,52.5,0,0,0-52.5,52.49V605.86a53.38,53.38,0,0,0,53.23,53.22h600.8a53.38,53.38,0,0,0,53.22-53.22V264.63A53.38,53.38,0,0,0,692.61,211.4ZM390.75,611.69c-105.5,0-191-85.53-191-191s85.53-191,191-191,191,85.53,191,191S496.25,611.69,390.75,611.69Z"/><path class="cls-1" d="M390.75,521.28A100.62,100.62,0,1,1,491.37,420.66,100.62,100.62,0,0,1,390.75,521.28Zm1.46-243.53A142.91,142.91,0,1,0,535.12,420.66,142.91,142.91,0,0,0,392.21,277.75Z"/><path class="cls-1" d="M671.57,302a26.25,26.25,0,1,1,26.25-26.24A26.24,26.24,0,0,1,671.57,302Zm19-92.59-121.63.06a9.7,9.7,0,0,1-8.6-5.42l-30.8-64.15a27,27,0,0,0-24.2-15.07H280c-8.07,0-15.4,5.88-19,13.12l-31,67.73a9.28,9.28,0,0,1-8.33,5.18h-8.56a6.08,6.08,0,0,1-6.08-6.07v-4.72a14.21,14.21,0,0,0-14-14.21L115,184.79a14.09,14.09,0,0,0-14.29,14.09v12H89a52.5,52.5,0,0,0-52.5,52.5v340.5a53.38,53.38,0,0,0,53.23,53.23h600.8a53.38,53.38,0,0,0,53.22-53.23V262.61A53.38,53.38,0,0,0,690.53,209.39ZM388.67,609.68c-105.51,0-191-85.53-191-191s85.52-191,191-191,191,85.53,191,191S494.17,609.68,388.67,609.68Z"/><path class="cls-1" d="M388.67,519.26A100.62,100.62,0,1,1,489.29,418.64,100.61,100.61,0,0,1,388.67,519.26Zm1.46-243.52A142.91,142.91,0,1,0,533,418.64,142.9,142.9,0,0,0,390.13,275.74Z"/><path class="cls-1" d="M669.49,300a26.25,26.25,0,1,1,26.24-26.25A26.25,26.25,0,0,1,669.49,300Zm19-92.6-121.62.07a9.71,9.71,0,0,1-8.61-5.43l-30.79-64.14a27,27,0,0,0-24.2-15.08H277.94c-8.06,0-15.4,5.89-18.95,13.13l-31,67.73a9.28,9.28,0,0,1-8.33,5.18h-8.56a6.08,6.08,0,0,1-6.08-6.08V198a14.2,14.2,0,0,0-14-14.21l-78.16-1.06a14.1,14.1,0,0,0-14.28,14.1v12H86.91a52.49,52.49,0,0,0-52.49,52.5v340.5a53.39,53.39,0,0,0,53.22,53.23h600.8a53.39,53.39,0,0,0,53.23-53.23V260.6A53.38,53.38,0,0,0,688.44,207.37ZM386.58,607.66c-105.5,0-191-85.53-191-191s85.53-191,191-191,191,85.53,191,191S492.09,607.66,386.58,607.66Z"/><path class="cls-1" d="M386.58,517.25A100.62,100.62,0,1,1,487.2,416.63,100.62,100.62,0,0,1,386.58,517.25ZM388,273.72A142.91,142.91,0,1,0,531,416.63,142.91,142.91,0,0,0,388,273.72Z"/><path class="cls-1" d="M667.4,298a26.25,26.25,0,1,1,26.25-26.25A26.25,26.25,0,0,1,667.4,298Zm19-92.6-121.63.07a9.71,9.71,0,0,1-8.6-5.43l-30.79-64.14a27,27,0,0,0-24.21-15.08H275.86c-8.06,0-15.4,5.89-19,13.12l-31,67.73a9.27,9.27,0,0,1-8.32,5.19H209a6.08,6.08,0,0,1-6.07-6.08V196a14.2,14.2,0,0,0-14-14.2l-78.15-1.06A14.09,14.09,0,0,0,96.5,194.85v12H84.83a52.5,52.5,0,0,0-52.5,52.49V599.82A53.38,53.38,0,0,0,85.56,653h600.8a53.39,53.39,0,0,0,53.23-53.22V258.58A53.39,53.39,0,0,0,686.36,205.36ZM384.5,605.65c-105.5,0-191-85.53-191-191s85.53-191,191-191,191,85.52,191,191S490,605.65,384.5,605.65Z"/><path class="cls-1" d="M384.5,515.24A100.62,100.62,0,1,1,485.12,414.62,100.62,100.62,0,0,1,384.5,515.24ZM386,271.71A142.91,142.91,0,1,0,528.87,414.62,142.91,142.91,0,0,0,386,271.71Z"/><path class="cls-1" d="M665.32,295.94a26.25,26.25,0,1,1,26.25-26.25A26.25,26.25,0,0,1,665.32,295.94Zm19-92.6-121.63.07a9.69,9.69,0,0,1-8.6-5.43l-30.8-64.14a27,27,0,0,0-24.2-15.07H273.78c-8.07,0-15.4,5.88-19,13.12l-31,67.73a9.28,9.28,0,0,1-8.33,5.18h-8.56a6.07,6.07,0,0,1-6.07-6.07V194a14.22,14.22,0,0,0-14-14.21l-78.15-1.05a14.09,14.09,0,0,0-14.29,14.09v12H82.75a52.5,52.5,0,0,0-52.5,52.5V597.8A53.38,53.38,0,0,0,83.48,651h600.8A53.38,53.38,0,0,0,737.5,597.8V256.57A53.39,53.39,0,0,0,684.28,203.34ZM382.42,603.63c-105.51,0-191-85.52-191-191s85.52-191,191-191,191,85.53,191,191S487.92,603.63,382.42,603.63Z"/><path class="cls-1" d="M382.42,513.22A100.62,100.62,0,1,1,483,412.6,100.62,100.62,0,0,1,382.42,513.22Zm1.46-243.53A142.91,142.91,0,1,0,526.78,412.6,142.91,142.91,0,0,0,383.88,269.69Z"/><path class="cls-1" d="M663.24,293.93a26.25,26.25,0,1,1,26.24-26.25A26.25,26.25,0,0,1,663.24,293.93Zm19-92.6-121.62.07A9.71,9.71,0,0,1,552,196l-30.79-64.14A27,27,0,0,0,497,116.75H271.69c-8.06,0-15.39,5.89-18.95,13.13l-31,67.72a9.27,9.27,0,0,1-8.33,5.19h-8.56a6.08,6.08,0,0,1-6.08-6.08V192a14.2,14.2,0,0,0-14-14.2l-78.16-1.06a14.1,14.1,0,0,0-14.28,14.1v12H80.66a52.49,52.49,0,0,0-52.49,52.5v340.5A53.38,53.38,0,0,0,81.39,649h600.8a53.38,53.38,0,0,0,53.23-53.22V254.56A53.38,53.38,0,0,0,682.19,201.33ZM380.33,601.62c-105.5,0-191-85.53-191-191s85.53-191,191-191,191,85.53,191,191S485.84,601.62,380.33,601.62Z"/><path class="cls-1" d="M380.33,511.21A100.62,100.62,0,1,1,481,410.59,100.62,100.62,0,0,1,380.33,511.21Zm1.46-243.53A142.91,142.91,0,1,0,524.7,410.59,142.91,142.91,0,0,0,381.79,267.68Z"/><path class="cls-1" d="M661.15,291.92a26.25,26.25,0,1,1,26.25-26.25A26.26,26.26,0,0,1,661.15,291.92Zm19-92.6-121.63.06a9.7,9.7,0,0,1-8.6-5.42l-30.79-64.15a27,27,0,0,0-24.21-15.07H269.61c-8.06,0-15.4,5.88-19,13.12l-31,67.73a9.28,9.28,0,0,1-8.32,5.18h-8.57a6.07,6.07,0,0,1-6.07-6.07V190a14.2,14.2,0,0,0-14-14.2l-78.15-1.06a14.08,14.08,0,0,0-14.28,14.09v12H78.58a52.51,52.51,0,0,0-52.5,52.5v340.5A53.38,53.38,0,0,0,79.31,647h600.8a53.39,53.39,0,0,0,53.23-53.23V252.54A53.39,53.39,0,0,0,680.11,199.32ZM378.25,599.61c-105.5,0-191-85.53-191-191s85.53-191,191-191,191,85.53,191,191S483.75,599.61,378.25,599.61Z"/><path class="cls-1" d="M378.25,509.2A100.62,100.62,0,1,1,478.87,408.58,100.62,100.62,0,0,1,378.25,509.2Zm1.46-243.53A142.91,142.91,0,1,0,522.62,408.58,142.91,142.91,0,0,0,379.71,265.67Z"/><path class="cls-1" d="M659.07,289.9a26.25,26.25,0,1,1,26.25-26.25A26.25,26.25,0,0,1,659.07,289.9Zm19-92.6-121.63.07a9.69,9.69,0,0,1-8.6-5.43L517,127.8a27,27,0,0,0-24.2-15.08H267.53c-8.07,0-15.4,5.89-19,13.13l-31,67.73a9.28,9.28,0,0,1-8.33,5.18h-8.56a6.07,6.07,0,0,1-6.07-6.07V188a14.22,14.22,0,0,0-14-14.21l-78.15-1A14.09,14.09,0,0,0,88.16,186.8v12H76.5A52.49,52.49,0,0,0,24,251.26v340.5A53.39,53.39,0,0,0,77.23,645H678a53.39,53.39,0,0,0,53.22-53.23V250.53A53.38,53.38,0,0,0,678,197.3ZM376.17,597.59c-105.51,0-191-85.52-191-191s85.52-191,191-191,191,85.53,191,191S481.67,597.59,376.17,597.59Z"/><path class="cls-1" d="M376.17,507.18A100.62,100.62,0,1,1,476.79,406.56,100.62,100.62,0,0,1,376.17,507.18Zm1.46-243.53a142.91,142.91,0,1,0,142.9,142.91A142.91,142.91,0,0,0,377.63,263.65Z"/><path class="cls-2" d="M659.23,207.78l-114.61.07a9.17,9.17,0,0,1-8.11-5.12l-29-60.44a25.42,25.42,0,0,0-22.81-14.2H272.43c-7.6,0-14.51,5.54-17.87,12.37l-29.2,63.81a8.74,8.74,0,0,1-7.84,4.89h-8.07a5.73,5.73,0,0,1-5.73-5.73V199a13.38,13.38,0,0,0-13.2-13.39l-73.64-1a13.27,13.27,0,0,0-13.46,13.28v11.27h-11A49.46,49.46,0,0,0,43,258.62V579.47a50.3,50.3,0,0,0,50.15,50.15H659.23a50.3,50.3,0,0,0,50.15-50.15V257.94A50.3,50.3,0,0,0,659.23,207.78ZM374.79,585a180,180,0,1,1,180-180A180,180,0,0,1,374.79,585ZM641.36,295A24.74,24.74,0,1,1,666.1,270.3,24.74,24.74,0,0,1,641.36,295Z"/><path class="cls-2" d="M376.17,270.3A134.66,134.66,0,1,0,510.83,405,134.66,134.66,0,0,0,376.17,270.3Zm-1.38,229.47A94.81,94.81,0,1,1,469.6,405,94.81,94.81,0,0,1,374.79,499.77Z"/></svg>