<svg xmlns="http://www.w3.org/2000/svg" viewBox="0 0 620.53 453.92"><defs><style>.cls-1{fill:#73ffc8;}.cls-2{fill:#74ffc9;stroke-width:0.05px;}.cls-10,.cls-100,.cls-101,.cls-102,.cls-11,.cls-12,.cls-13,.cls-14,.cls-15,.cls-16,.cls-17,.cls-18,.cls-19,.cls-2,.cls-20,.cls-21,.cls-22,.cls-23,.cls-24,.cls-25,.cls-26,.cls-27,.cls-28,.cls-29,.cls-3,.cls-30,.cls-31,.cls-32,.cls-33,.cls-34,.cls-35,.cls-36,.cls-37,.cls-38,.cls-39,.cls-4,.cls-40,.cls-41,.cls-42,.cls-43,.cls-44,.cls-45,.cls-46,.cls-47,.cls-48,.cls-49,.cls-5,.cls-50,.cls-51,.cls-52,.cls-53,.cls-54,.cls-55,.cls-56,.cls-57,.cls-58,.cls-59,.cls-6,.cls-60,.cls-61,.cls-62,.cls-63,.cls-64,.cls-65,.cls-66,.cls-67,.cls-68,.cls-69,.cls-7,.cls-70,.cls-71,.cls-72,.cls-73,.cls-74,.cls-75,.cls-76,.cls-77,.cls-78,.cls-79,.cls-8,.cls-80,.cls-81,.cls-82,.cls-83,.cls-84,.cls-85,.cls-86,.cls-87,.cls-88,.cls-89,.cls-9,.cls-90,.cls-91,.cls-92,.cls-93,.cls-94,.cls-95,.cls-96,.cls-97,.cls-98,.cls-99{stroke:#73ffc8;stroke-miterlimit:10;}.cls-3{fill:#76ffc9;stroke-width:0.1px;}.cls-4{fill:#77ffca;stroke-width:0.15px;}.cls-5{fill:#79ffca;stroke-width:0.2px;}.cls-6{fill:#7affcb;stroke-width:0.25px;}.cls-7{fill:#7bffcb;stroke-width:0.3px;}.cls-8{fill:#7dffcc;stroke-width:0.35px;}.cls-9{fill:#7effcc;stroke-width:0.4px;}.cls-10{fill:#7fffcd;stroke-width:0.45px;}.cls-11{fill:#81ffcd;stroke-width:0.5px;}.cls-12{fill:#82ffce;stroke-width:0.54px;}.cls-13{fill:#84ffcf;stroke-width:0.59px;}.cls-14{fill:#85ffcf;stroke-width:0.64px;}.cls-15{fill:#86ffd0;stroke-width:0.69px;}.cls-16{fill:#88ffd0;stroke-width:0.74px;}.cls-17{fill:#89ffd1;stroke-width:0.79px;}.cls-18{fill:#8bffd1;stroke-width:0.84px;}.cls-19{fill:#8cffd2;stroke-width:0.89px;}.cls-20{fill:#8dffd2;stroke-width:0.94px;}.cls-21{fill:#8fffd3;stroke-width:0.99px;}.cls-22{fill:#90ffd3;stroke-width:1.04px;}.cls-23{fill:#91ffd4;stroke-width:1.09px;}.cls-24{fill:#93ffd5;stroke-width:1.14px;}.cls-25{fill:#94ffd5;stroke-width:1.19px;}.cls-26{fill:#96ffd6;stroke-width:1.24px;}.cls-27{fill:#97ffd6;stroke-width:1.29px;}.cls-28{fill:#98ffd7;stroke-width:1.34px;}.cls-29{fill:#9affd7;stroke-width:1.39px;}.cls-30{fill:#9bffd8;stroke-width:1.44px;}.cls-31{fill:#9dffd8;stroke-width:1.49px;}.cls-32{fill:#9effd9;stroke-width:1.53px;}.cls-33{fill:#9fffd9;stroke-width:1.58px;}.cls-34{fill:#a1ffda;stroke-width:1.63px;}.cls-35{fill:#a2ffdb;stroke-width:1.68px;}.cls-36{fill:#a4ffdb;stroke-width:1.73px;}.cls-37{fill:#a5ffdc;stroke-width:1.78px;}.cls-38{fill:#a6ffdc;stroke-width:1.83px;}.cls-39{fill:#a8ffdd;stroke-width:1.88px;}.cls-40{fill:#a9ffdd;stroke-width:1.93px;}.cls-41{fill:#aaffde;stroke-width:1.98px;}.cls-42{fill:#acffde;stroke-width:2.03px;}.cls-43{fill:#adffdf;stroke-width:2.08px;}.cls-44{fill:#afffdf;stroke-width:2.13px;}.cls-45{fill:#b0ffe0;stroke-width:2.18px;}.cls-46{fill:#b1ffe1;stroke-width:2.23px;}.cls-47{fill:#b3ffe1;stroke-width:2.28px;}.cls-48{fill:#b4ffe2;stroke-width:2.33px;}.cls-49{fill:#b6ffe2;stroke-width:2.38px;}.cls-50{fill:#b7ffe3;stroke-width:2.43px;}.cls-51{fill:#b8ffe3;stroke-width:2.48px;}.cls-52{fill:#baffe4;stroke-width:2.52px;}.cls-53{fill:#bbffe4;stroke-width:2.57px;}.cls-54{fill:#bcffe5;stroke-width:2.62px;}.cls-55{fill:#beffe5;stroke-width:2.67px;}.cls-56{fill:#bfffe6;stroke-width:2.72px;}.cls-57{fill:#c1ffe6;stroke-width:2.77px;}.cls-58{fill:#c2ffe7;stroke-width:2.82px;}.cls-59{fill:#c3ffe8;stroke-width:2.87px;}.cls-60{fill:#c5ffe8;stroke-width:2.92px;}.cls-61{fill:#c6ffe9;stroke-width:2.97px;}.cls-62{fill:#c8ffe9;stroke-width:3.02px;}.cls-63{fill:#c9ffea;stroke-width:3.07px;}.cls-64{fill:#caffea;stroke-width:3.12px;}.cls-65{fill:#ccffeb;stroke-width:3.17px;}.cls-66{fill:#cdffeb;stroke-width:3.22px;}.cls-67{fill:#ceffec;stroke-width:3.27px;}.cls-68{fill:#d0ffec;stroke-width:3.32px;}.cls-69{fill:#d1ffed;stroke-width:3.37px;}.cls-70{fill:#d3ffee;stroke-width:3.42px;}.cls-71{fill:#d4ffee;stroke-width:3.47px;}.cls-72{fill:#d5ffef;stroke-width:3.51px;}.cls-73{fill:#d7ffef;stroke-width:3.56px;}.cls-74{fill:#d8fff0;stroke-width:3.61px;}.cls-75{fill:#dafff0;stroke-width:3.66px;}.cls-76{fill:#dbfff1;stroke-width:3.71px;}.cls-77{fill:#dcfff1;stroke-width:3.76px;}.cls-78{fill:#defff2;stroke-width:3.81px;}.cls-79{fill:#dffff2;stroke-width:3.86px;}.cls-80{fill:#e1fff3;stroke-width:3.91px;}.cls-81{fill:#e2fff4;stroke-width:3.96px;}.cls-82{fill:#e3fff4;stroke-width:4.01px;}.cls-83{fill:#e5fff5;stroke-width:4.06px;}.cls-84{fill:#e6fff5;stroke-width:4.11px;}.cls-85{fill:#e7fff6;stroke-width:4.16px;}.cls-86{fill:#e9fff6;stroke-width:4.21px;}.cls-87{fill:#eafff7;stroke-width:4.26px;}.cls-88{fill:#ecfff7;stroke-width:4.31px;}.cls-89{fill:#edfff8;stroke-width:4.36px;}.cls-90{fill:#eefff8;stroke-width:4.41px;}.cls-91{fill:#f0fff9;stroke-width:4.46px;}.cls-92{fill:#f1fffa;stroke-width:4.5px;}.cls-93{fill:#f3fffa;stroke-width:4.55px;}.cls-94{fill:#f4fffb;stroke-width:4.6px;}.cls-95{fill:#f5fffb;stroke-width:4.65px;}.cls-96{fill:#f7fffc;stroke-width:4.7px;}.cls-97{fill:#f8fffc;stroke-width:4.75px;}.cls-98{fill:#f9fffd;stroke-width:4.8px;}.cls-99{fill:#fbfffd;stroke-width:4.85px;}.cls-100{fill:#fcfffe;stroke-width:4.9px;}.cls-101{fill:#fefffe;stroke-width:4.95px;}.cls-102{fill:#fff;stroke-width:5px;}</style></defs><title>newmwoahhhhh</title><g id="Layer_2" data-name="Layer 2"><path class="cls-1" d="M140.45,335.57c0-41.1-.82-74.81-3.29-107.69h63.3L203.75,292h2.47c22.19-37.81,59.19-73.16,125-73.16,54.26,0,95.36,32.88,112.62,79.74h1.65c12.33-22.2,27.95-39.46,44.39-51.79,23.84-18.09,50.15-27.95,88-27.95,52.61,0,130.71,34.53,130.71,172.63V625.76H637.8V400.52c0-76.46-27.95-122.49-86.31-122.49-41.11,0-73.17,30.41-85.5,65.76A119.12,119.12,0,0,0,460.24,380v245.8h-70.7V387.36c0-63.3-28-109.33-83-109.33-45.21,0-78.1,36.17-89.61,72.34-4.11,10.69-5.75,23-5.75,35.35v240h-70.7Z" transform="translate(-87.97 -171.84)"/><path class="cls-2" d="M140,335.13c0-41.1-.82-74.81-3.29-107.69H200l3.29,64.12h2.47C228,253.75,265,218.4,330.71,218.4c54.26,0,95.36,32.88,112.62,79.74H445c12.33-22.2,27.95-39.46,44.39-51.79,23.84-18.09,50.15-27.95,88-27.95C629.94,218.4,708,252.93,708,391V625.32h-70.7V400.08c0-76.46-28-122.49-86.32-122.49-41.1,0-73.16,30.41-85.49,65.76a119.12,119.12,0,0,0-5.75,36.17v245.8h-70.7V386.92c0-63.3-27.95-109.33-83-109.33-45.21,0-78.1,36.17-89.61,72.34-4.11,10.69-5.75,23-5.75,35.35v240H140Z" transform="translate(-87.97 -171.84)"/><path class="cls-3" d="M139.53,334.69c0-41.1-.82-74.81-3.29-107.69h63.3l3.29,64.12h2.47c22.19-37.81,59.18-73.16,125-73.16,54.26,0,95.36,32.88,112.62,79.74h1.65c12.33-22.2,28-39.46,44.39-51.79,23.84-18.09,50.14-27.95,88-27.95,52.61,0,130.71,34.52,130.71,172.63V624.88h-70.7V399.63c0-76.45-28-122.48-86.32-122.48-41.1,0-73.16,30.41-85.49,65.76a119.11,119.11,0,0,0-5.76,36.17v245.8H388.62V386.48c0-63.3-27.95-109.33-83-109.33-45.21,0-78.1,36.17-89.61,72.34-4.11,10.69-5.75,23-5.75,35.35v240h-70.7Z" transform="translate(-87.97 -171.84)"/><path class="cls-4" d="M139.07,334.25c0-41.1-.82-74.81-3.29-107.69h63.3l3.29,64.12h2.47c22.19-37.81,59.18-73.16,125-73.16,54.26,0,95.36,32.88,112.62,79.74h1.65c12.33-22.2,27.95-39.46,44.39-51.79,23.84-18.09,50.14-27.95,88-27.95,52.61,0,130.71,34.52,130.71,172.63V624.44h-70.7V399.19c0-76.45-27.95-122.48-86.32-122.48-41.1,0-73.16,30.41-85.49,65.76a119.11,119.11,0,0,0-5.76,36.17v245.8H388.16V386c0-63.3-28-109.33-83-109.33-45.22,0-78.1,36.17-89.61,72.34-4.11,10.69-5.75,23-5.75,35.35v240h-70.7Z" transform="translate(-87.97 -171.84)"/><path class="cls-5" d="M138.61,333.81c0-41.1-.82-74.81-3.29-107.69h63.3l3.29,64.12h2.47c22.19-37.81,59.18-73.16,125-73.16,54.26,0,95.36,32.88,112.62,79.74h1.65c12.33-22.2,27.95-39.46,44.39-51.79,23.84-18.09,50.14-27.95,88-27.95,52.61,0,130.71,34.52,130.71,172.63V624H636V398.75c0-76.45-28-122.48-86.32-122.48-41.1,0-73.16,30.41-85.49,65.76a119.11,119.11,0,0,0-5.76,36.17V624H387.7V385.6c0-63.3-27.95-109.33-83-109.33-45.22,0-78.1,36.17-89.61,72.34-4.11,10.68-5.75,23-5.75,35.35V624h-70.7Z" transform="translate(-87.97 -171.84)"/><path class="cls-6" d="M138.15,333.37c0-41.1-.82-74.81-3.29-107.69h63.3l3.29,64.12h2.46c22.2-37.82,59.19-73.16,125-73.16,54.26,0,95.36,32.88,112.62,79.74h1.65c12.33-22.2,27.95-39.46,44.39-51.79,23.84-18.09,50.14-28,88-28,52.61,0,130.71,34.52,130.71,172.63V623.56H635.5V398.31c0-76.45-28-122.48-86.32-122.48-41.1,0-73.16,30.41-85.49,65.76a119.06,119.06,0,0,0-5.76,36.17v245.8H387.24V385.16c0-63.3-27.95-109.33-83-109.33-45.22,0-78.1,36.17-89.61,72.34-4.11,10.68-5.75,23-5.75,35.35v240h-70.7Z" transform="translate(-87.97 -171.84)"/><path class="cls-7" d="M137.69,332.93c0-41.11-.82-74.81-3.29-107.69h63.3L201,289.36h2.46c22.2-37.82,59.19-73.16,125-73.16,54.26,0,95.36,32.88,112.62,79.74h1.65c12.33-22.2,27.95-39.46,44.39-51.79,23.84-18.09,50.14-28,88-28,52.61,0,130.71,34.52,130.71,172.63V623.12H635V397.87c0-76.45-27.95-122.49-86.32-122.49-41.1,0-73.16,30.42-85.49,65.77a119.06,119.06,0,0,0-5.76,36.17v245.8H386.78V384.72c0-63.3-27.95-109.34-83-109.34-45.22,0-78.1,36.18-89.61,72.35-4.11,10.68-5.75,23-5.75,35.34V623.12h-70.7Z" transform="translate(-87.97 -171.84)"/><path class="cls-8" d="M137.23,332.49c0-41.11-.82-74.81-3.29-107.69h63.3l3.29,64.12H203c22.2-37.82,59.19-73.17,125-73.17,54.25,0,95.36,32.89,112.62,79.74h1.65c12.33-22.19,27.95-39.45,44.39-51.79,23.84-18.08,50.14-27.95,88-27.95,52.61,0,130.71,34.53,130.71,172.64V622.68h-70.7V397.43c0-76.45-28-122.49-86.32-122.49-41.1,0-73.16,30.42-85.49,65.77A119.06,119.06,0,0,0,457,376.88v245.8H386.32V384.28c0-63.3-27.95-109.34-83-109.34-45.22,0-78.1,36.17-89.61,72.35-4.11,10.68-5.75,23-5.75,35.34v240h-70.7Z" transform="translate(-87.97 -171.84)"/><path class="cls-9" d="M136.77,332.05c0-41.11-.82-74.81-3.29-107.69h63.3l3.29,64.12h2.46c22.2-37.82,59.19-73.17,125-73.17,54.25,0,95.36,32.89,112.62,79.74h1.65c12.33-22.19,27.95-39.45,44.39-51.79,23.84-18.08,50.14-27.95,88-27.95,52.61,0,130.71,34.53,130.71,172.64V622.24h-70.7V397c0-76.45-28-122.49-86.32-122.49-41.1,0-73.16,30.42-85.49,65.77a119.06,119.06,0,0,0-5.76,36.17v245.8h-70.7V383.84c0-63.3-28-109.34-83-109.34-45.22,0-78.1,36.17-89.61,72.34-4.11,10.69-5.75,23-5.75,35.35V622.24h-70.7Z" transform="translate(-87.97 -171.84)"/><path class="cls-10" d="M136.31,331.61c0-41.11-.82-74.81-3.29-107.69h63.3L199.61,288h2.46c22.2-37.82,59.19-73.17,125-73.17,54.25,0,95.36,32.89,112.62,79.74h1.65c12.33-22.19,27.94-39.45,44.39-51.79,23.84-18.08,50.14-27.95,88-27.95,52.61,0,130.71,34.53,130.71,172.64V621.8h-70.7V396.55c0-76.45-27.95-122.49-86.32-122.49-41.1,0-73.16,30.42-85.49,65.77A119.06,119.06,0,0,0,456.09,376V621.8h-70.7V383.4c0-63.3-27.95-109.34-83-109.34-45.22,0-78.1,36.17-89.61,72.34-4.11,10.69-5.75,23-5.75,35.35v240h-70.7Z" transform="translate(-87.97 -171.84)"/><path class="cls-11" d="M135.85,331.17c0-41.11-.82-74.81-3.29-107.69h63.3l3.29,64.12h2.46c22.2-37.82,59.19-73.17,125-73.17,54.25,0,95.36,32.89,112.62,79.74h1.64c12.34-22.19,27.95-39.46,44.4-51.79,23.84-18.08,50.14-27.95,88-27.95,52.61,0,130.71,34.53,130.71,172.64V621.36H633.2V396.11c0-76.45-28-122.49-86.32-122.49-41.1,0-73.16,30.42-85.49,65.77a119.06,119.06,0,0,0-5.76,36.17v245.8h-70.7V383c0-63.3-27.95-109.34-83-109.34-45.22,0-78.1,36.17-89.61,72.34-4.11,10.69-5.75,23-5.75,35.35V621.36h-70.7Z" transform="translate(-87.97 -171.84)"/><path class="cls-12" d="M135.39,330.73c0-41.11-.82-74.81-3.29-107.7h63.3l3.29,64.13h2.46c22.2-37.82,59.19-73.17,125-73.17,54.25,0,95.36,32.88,112.62,79.74h1.64c12.34-22.19,27.95-39.46,44.4-51.79,23.84-18.08,50.14-27.95,88-27.95,52.61,0,130.71,34.53,130.71,172.64V620.92h-70.7V395.67c0-76.45-28-122.49-86.32-122.49-41.1,0-73.16,30.42-85.49,65.77a119,119,0,0,0-5.76,36.17v245.8h-70.7V382.52c0-63.3-28-109.34-83-109.34-45.21,0-78.09,36.17-89.6,72.34-4.11,10.69-5.75,23-5.75,35.35v240h-70.7Z" transform="translate(-87.97 -171.84)"/><path class="cls-13" d="M134.93,330.29c0-41.11-.83-74.81-3.29-107.7h63.3l3.29,64.13h2.46c22.2-37.82,59.19-73.17,125-73.17,54.25,0,95.36,32.88,112.62,79.74h1.64c12.34-22.19,27.95-39.46,44.4-51.79,23.83-18.08,50.14-27.95,88-27.95,52.61,0,130.71,34.53,130.71,172.64V620.47h-70.7V395.23c0-76.45-27.95-122.49-86.32-122.49-41.1,0-73.16,30.42-85.5,65.77a119.33,119.33,0,0,0-5.75,36.17V620.47H384V382.08c0-63.3-27.95-109.34-83-109.34-45.21,0-78.09,36.17-89.6,72.34-4.11,10.69-5.76,23-5.76,35.35v240H134.93Z" transform="translate(-87.97 -171.84)"/><path class="cls-14" d="M134.47,329.84c0-41.1-.83-74.8-3.29-107.69h63.3l3.29,64.13h2.46c22.2-37.82,59.19-73.17,125-73.17,54.25,0,95.36,32.88,112.62,79.74h1.64c12.33-22.19,27.95-39.46,44.4-51.79,23.83-18.08,50.14-27.95,88-27.95,52.61,0,130.7,34.53,130.7,172.64V620H631.82V394.79c0-76.45-28-122.49-86.32-122.49-41.1,0-73.16,30.42-85.5,65.77a119.33,119.33,0,0,0-5.75,36.17V620h-70.7V381.64c0-63.3-27.95-109.34-83-109.34-45.21,0-78.09,36.17-89.6,72.34-4.11,10.69-5.76,23-5.76,35.35V620H134.47Z" transform="translate(-87.97 -171.84)"/><path class="cls-15" d="M134,329.4c0-41.1-.83-74.8-3.29-107.69H194l3.29,64.12h2.46C222,248,259,212.67,324.73,212.67c54.25,0,95.35,32.88,112.62,79.74H439c12.33-22.2,27.95-39.46,44.39-51.79,23.84-18.08,50.15-28,88-28,52.61,0,130.7,34.53,130.7,172.64V619.59H631.36V394.35c0-76.46-28-122.49-86.32-122.49-41.1,0-73.16,30.42-85.5,65.77a119.33,119.33,0,0,0-5.75,36.17V619.59h-70.7V381.19c0-63.3-27.95-109.33-83-109.33-45.21,0-78.09,36.17-89.6,72.34-4.11,10.69-5.76,23-5.76,35.35v240H134Z" transform="translate(-87.97 -171.84)"/><path class="cls-16" d="M133.55,329c0-41.1-.83-74.8-3.29-107.69h63.3l3.28,64.12h2.47c22.2-37.81,59.19-73.16,125-73.16,54.25,0,95.35,32.88,112.62,79.74h1.64c12.33-22.2,28-39.46,44.39-51.79,23.84-18.09,50.15-28,88-28,52.61,0,130.7,34.53,130.7,172.63V619.15H630.9V393.91c0-76.46-27.95-122.49-86.32-122.49-41.1,0-73.17,30.42-85.5,65.76a119.45,119.45,0,0,0-5.75,36.18V619.15h-70.7V380.75c0-63.3-27.95-109.33-83-109.33-45.21,0-78.09,36.17-89.6,72.34-4.11,10.69-5.76,23-5.76,35.35v240H133.55Z" transform="translate(-87.97 -171.84)"/><path class="cls-17" d="M133.09,328.52c0-41.1-.83-74.8-3.29-107.69h63.3L196.38,285h2.47c22.2-37.81,59.19-73.16,125-73.16,54.25,0,95.35,32.88,112.62,79.74h1.64c12.33-22.2,27.95-39.46,44.39-51.79,23.84-18.09,50.15-28,88-28,52.62,0,130.71,34.53,130.71,172.63V618.71H630.44V393.47c0-76.46-28-122.49-86.32-122.49-41.1,0-73.17,30.42-85.5,65.76a119.43,119.43,0,0,0-5.75,36.17v245.8h-70.7V380.31c0-63.3-27.95-109.33-83-109.33-45.21,0-78.09,36.17-89.6,72.34-4.11,10.69-5.76,23-5.76,35.35v240H133.09Z" transform="translate(-87.97 -171.84)"/><path class="cls-18" d="M132.62,328.08c0-41.1-.82-74.81-3.28-107.69h63.3l3.28,64.12h2.47c22.2-37.81,59.19-73.16,125-73.16,54.26,0,95.36,32.88,112.63,79.74h1.64c12.33-22.2,27.95-39.46,44.39-51.79,23.84-18.09,50.15-28,88-28,52.62,0,130.71,34.53,130.71,172.63V618.27H630V393c0-76.46-28-122.49-86.32-122.49-41.1,0-73.17,30.41-85.5,65.76a119.43,119.43,0,0,0-5.75,36.17v245.8h-70.7V379.87c0-63.3-27.95-109.33-83-109.33-45.21,0-78.09,36.17-89.6,72.34-4.11,10.69-5.76,23-5.76,35.35v240h-70.7Z" transform="translate(-87.97 -171.84)"/><path class="cls-19" d="M132.16,327.64c0-41.1-.82-74.81-3.28-107.69h63.3l3.28,64.12h2.47c22.2-37.81,59.19-73.16,125-73.16,54.26,0,95.36,32.88,112.63,79.74h1.64c12.33-22.2,28-39.46,44.39-51.79,23.84-18.09,50.15-28,88-28,52.62,0,130.71,34.52,130.71,172.63V617.83H629.52V392.59c0-76.46-28-122.49-86.32-122.49-41.1,0-73.17,30.41-85.5,65.76A119.43,119.43,0,0,0,452,372v245.8h-70.7V379.43c0-63.3-27.95-109.33-83-109.33-45.21,0-78.09,36.17-89.6,72.34-4.11,10.69-5.76,23-5.76,35.35v240h-70.7Z" transform="translate(-87.97 -171.84)"/><path class="cls-20" d="M131.7,327.2c0-41.1-.82-74.81-3.28-107.69h63.3L195,283.63h2.47c22.2-37.81,59.19-73.16,125-73.16,54.26,0,95.36,32.88,112.63,79.74h1.64c12.33-22.2,27.95-39.46,44.39-51.79,23.84-18.09,50.15-27.95,88-27.95,52.62,0,130.71,34.52,130.71,172.63V617.39h-70.7V392.14c0-76.45-27.95-122.48-86.31-122.48-41.11,0-73.17,30.41-85.5,65.76a119.12,119.12,0,0,0-5.75,36.17v245.8h-70.7V379c0-63.3-28-109.33-83-109.33-45.21,0-78.09,36.17-89.6,72.34-4.11,10.69-5.76,23-5.76,35.35v240H131.7Z" transform="translate(-87.97 -171.84)"/><path class="cls-21" d="M131.24,326.76c0-41.1-.82-74.81-3.28-107.69h63.29l3.29,64.12H197C219.2,245.38,256.2,210,322,210c54.26,0,95.36,32.88,112.63,79.74h1.64c12.33-22.2,27.95-39.46,44.39-51.79,23.84-18.09,50.15-27.95,88-27.95,52.62,0,130.71,34.52,130.71,172.63V617h-70.7V391.7c0-76.45-28-122.48-86.31-122.48-41.11,0-73.17,30.41-85.5,65.76A119.12,119.12,0,0,0,451,371.15V617h-70.7V378.55c0-63.3-27.95-109.33-83-109.33-45.21,0-78.1,36.17-89.6,72.34-4.11,10.69-5.76,23-5.76,35.35V617h-70.7Z" transform="translate(-87.97 -171.84)"/><path class="cls-22" d="M130.78,326.32c0-41.1-.82-74.81-3.28-107.69h63.29l3.29,64.12h2.47c22.19-37.81,59.19-73.16,125-73.16,54.26,0,95.36,32.88,112.63,79.74h1.64c12.33-22.2,28-39.46,44.39-51.79,23.84-18.09,50.15-27.95,88-27.95,52.62,0,130.71,34.52,130.71,172.63V616.51h-70.7V391.26c0-76.45-28-122.48-86.31-122.48-41.11,0-73.17,30.41-85.5,65.76a119.12,119.12,0,0,0-5.75,36.17v245.8h-70.7V378.11c0-63.3-27.95-109.33-83-109.33-45.21,0-78.1,36.17-89.6,72.34-4.11,10.68-5.76,23-5.76,35.35v240h-70.7Z" transform="translate(-87.97 -171.84)"/><path class="cls-23" d="M130.32,325.88c0-41.1-.82-74.81-3.29-107.69h63.3l3.29,64.12h2.47c22.19-37.82,59.19-73.16,125-73.16,54.26,0,95.36,32.88,112.63,79.74h1.64c12.33-22.2,27.95-39.46,44.39-51.79,23.84-18.09,50.15-27.95,88-27.95,52.61,0,130.71,34.52,130.71,172.63V616.07h-70.7V390.82c0-76.45-27.95-122.48-86.31-122.48-41.11,0-73.17,30.41-85.5,65.76a119.07,119.07,0,0,0-5.75,36.17v245.8h-70.7V377.67c0-63.3-28-109.33-83-109.33-45.21,0-78.1,36.17-89.6,72.34-4.12,10.68-5.76,23-5.76,35.35v240h-70.7Z" transform="translate(-87.97 -171.84)"/><path class="cls-24" d="M129.86,325.44c0-41.11-.82-74.81-3.29-107.69h63.3l3.29,64.12h2.47c22.19-37.82,59.19-73.16,125-73.16,54.26,0,95.36,32.88,112.62,79.74h1.65c12.33-22.2,27.95-39.46,44.39-51.79,23.84-18.09,50.15-27.95,88-27.95,52.61,0,130.71,34.52,130.71,172.63V615.63h-70.7V390.38c0-76.45-28-122.49-86.31-122.49-41.11,0-73.17,30.42-85.5,65.77a119.07,119.07,0,0,0-5.75,36.17v245.8H379V377.23c0-63.3-27.95-109.34-83-109.34-45.21,0-78.1,36.18-89.61,72.35-4.11,10.68-5.75,23-5.75,35.34V615.63h-70.7Z" transform="translate(-87.97 -171.84)"/><path class="cls-25" d="M129.4,325c0-41.11-.82-74.81-3.29-107.69h63.3l3.29,64.12h2.47c22.19-37.82,59.19-73.17,125-73.17,54.26,0,95.36,32.89,112.62,79.74h1.65c12.33-22.19,27.95-39.45,44.39-51.79,23.84-18.08,50.15-28,88-28,52.61,0,130.71,34.53,130.71,172.64V615.19h-70.7V389.94c0-76.45-28-122.49-86.31-122.49-41.11,0-73.17,30.42-85.5,65.77a119.07,119.07,0,0,0-5.75,36.17v245.8h-70.7V376.79c0-63.3-27.95-109.34-83-109.34-45.21,0-78.1,36.17-89.61,72.35-4.11,10.68-5.75,23-5.75,35.34V615.19H129.4Z" transform="translate(-87.97 -171.84)"/><path class="cls-26" d="M128.94,324.56c0-41.11-.82-74.81-3.29-107.69H189L192.24,281h2.47c22.19-37.82,59.19-73.17,125-73.17,54.26,0,95.36,32.89,112.62,79.74h1.65c12.33-22.19,27.95-39.45,44.39-51.79,23.84-18.08,50.15-28,88-28,52.61,0,130.71,34.53,130.71,172.64V614.75h-70.7V389.5C626.29,313.05,598.34,267,540,267c-41.11,0-73.17,30.42-85.5,65.77A119.07,119.07,0,0,0,448.73,369v245.8H378V376.35C378,313.05,350.08,267,295,267c-45.21,0-78.1,36.17-89.61,72.34-4.11,10.69-5.75,23-5.75,35.35V614.75h-70.7Z" transform="translate(-87.97 -171.84)"/><path class="cls-27" d="M128.48,324.12c0-41.11-.82-74.81-3.29-107.69h63.3l3.29,64.12h2.47c22.19-37.82,59.19-73.17,125-73.17,54.26,0,95.36,32.89,112.62,79.74h1.65c12.33-22.19,27.95-39.46,44.39-51.79,23.84-18.08,50.15-28,88-28,52.61,0,130.71,34.53,130.71,172.64V614.31h-70.7V389.06c0-76.45-28-122.49-86.32-122.49-41.1,0-73.16,30.42-85.49,65.77a119.07,119.07,0,0,0-5.75,36.17v245.8h-70.7V375.91c0-63.3-27.95-109.34-83-109.34-45.21,0-78.1,36.17-89.61,72.34-4.11,10.69-5.75,23-5.75,35.35v240h-70.7Z" transform="translate(-87.97 -171.84)"/><path class="cls-28" d="M128,323.68c0-41.11-.82-74.81-3.29-107.69H188l3.29,64.12h2.47c22.19-37.82,59.18-73.17,125-73.17,54.26,0,95.36,32.89,112.62,79.74H433c12.33-22.19,27.95-39.46,44.39-51.79,23.84-18.08,50.14-27.95,88-27.95,52.61,0,130.71,34.53,130.71,172.64V613.87h-70.7V388.62c0-76.45-28-122.49-86.32-122.49-41.1,0-73.16,30.42-85.49,65.77a119,119,0,0,0-5.76,36.17v245.8H377.11V375.47c0-63.3-27.95-109.34-83-109.34-45.21,0-78.1,36.17-89.61,72.34-4.11,10.69-5.75,23-5.75,35.35V613.87H128Z" transform="translate(-87.97 -171.84)"/><path class="cls-29" d="M127.56,323.24c0-41.11-.82-74.81-3.29-107.7h63.3l3.29,64.13h2.47c22.19-37.82,59.18-73.17,124.95-73.17,54.26,0,95.36,32.88,112.62,79.74h1.65c12.33-22.19,27.95-39.46,44.39-51.79,23.84-18.08,50.14-27.95,88-27.95,52.61,0,130.71,34.53,130.71,172.64V613.43h-70.7V388.18c0-76.45-27.95-122.49-86.32-122.49-41.1,0-73.16,30.42-85.49,65.77a119,119,0,0,0-5.76,36.17v245.8H376.65V375c0-63.3-27.95-109.34-83-109.34-45.22,0-78.1,36.17-89.61,72.34-4.11,10.69-5.75,23-5.75,35.35v240h-70.7Z" transform="translate(-87.97 -171.84)"/><path class="cls-30" d="M127.1,322.8c0-41.11-.82-74.81-3.29-107.7h63.3l3.29,64.13h2.47c22.19-37.82,59.18-73.17,125-73.17,54.26,0,95.36,32.88,112.62,79.74h1.65c12.33-22.19,28-39.46,44.39-51.79,23.84-18.08,50.14-27.95,88-27.95,52.61,0,130.71,34.53,130.71,172.64V613h-70.7V387.74c0-76.45-28-122.49-86.32-122.49-41.1,0-73.16,30.42-85.49,65.77a119,119,0,0,0-5.76,36.17V613H376.19V374.59c0-63.3-27.95-109.34-83-109.34-45.22,0-78.1,36.17-89.61,72.34-4.11,10.69-5.75,23-5.75,35.35V613H127.1Z" transform="translate(-87.97 -171.84)"/><path class="cls-31" d="M126.64,322.35c0-41.1-.82-74.8-3.29-107.69h63.3l3.29,64.13h2.46c22.2-37.82,59.19-73.17,125-73.17,54.26,0,95.36,32.88,112.62,79.74h1.65C444,263.17,459.58,245.9,476,233.57c23.84-18.08,50.14-27.95,88-27.95,52.61,0,130.71,34.53,130.71,172.64V612.54H624V387.3c0-76.45-28-122.49-86.32-122.49-41.1,0-73.16,30.42-85.49,65.77a119,119,0,0,0-5.76,36.17V612.54H375.73V374.15c0-63.3-28-109.34-83-109.34-45.22,0-78.1,36.17-89.61,72.34-4.11,10.69-5.75,23-5.75,35.35v240h-70.7Z" transform="translate(-87.97 -171.84)"/><path class="cls-32" d="M126.18,321.91c0-41.1-.82-74.8-3.29-107.69h63.3l3.29,64.12h2.46c22.2-37.81,59.19-73.16,125-73.16,54.26,0,95.36,32.88,112.62,79.74h1.65c12.33-22.2,27.95-39.46,44.39-51.79,23.84-18.08,50.14-27.95,88-27.95,52.61,0,130.71,34.53,130.71,172.64V612.1h-70.7V386.86c0-76.46-27.95-122.49-86.32-122.49-41.1,0-73.16,30.42-85.49,65.77A119,119,0,0,0,446,366.31V612.1H375.27V373.7c0-63.3-27.95-109.33-83-109.33-45.22,0-78.1,36.17-89.61,72.34-4.11,10.69-5.75,23-5.75,35.35v240h-70.7Z" transform="translate(-87.97 -171.84)"/><path class="cls-33" d="M125.72,321.47c0-41.1-.82-74.8-3.29-107.69h63.3L189,277.9h2.46c22.2-37.81,59.19-73.16,125-73.16,54.25,0,95.36,32.88,112.62,79.74h1.65c12.33-22.2,28-39.46,44.39-51.79,23.84-18.09,50.14-27.95,88-27.95,52.61,0,130.71,34.53,130.71,172.63V611.66h-70.7V386.42c0-76.46-28-122.49-86.32-122.49-41.1,0-73.16,30.42-85.49,65.76a119.13,119.13,0,0,0-5.76,36.18V611.66H374.81V373.26c0-63.3-27.95-109.33-83-109.33-45.22,0-78.1,36.17-89.61,72.34-4.11,10.69-5.75,23-5.75,35.35v240h-70.7Z" transform="translate(-87.97 -171.84)"/><path class="cls-34" d="M125.26,321c0-41.1-.82-74.8-3.29-107.69h63.3l3.29,64.12H191c22.2-37.81,59.19-73.16,125-73.16,54.25,0,95.36,32.88,112.62,79.74h1.65c12.33-22.2,27.95-39.46,44.39-51.79,23.84-18.09,50.14-27.95,88-27.95,52.61,0,130.71,34.53,130.71,172.63V611.22h-70.7V386c0-76.46-28-122.49-86.32-122.49-41.1,0-73.16,30.42-85.49,65.76A119.11,119.11,0,0,0,445,365.42v245.8h-70.7V372.82c0-63.3-27.94-109.33-83-109.33-45.22,0-78.1,36.17-89.61,72.34-4.11,10.69-5.75,23-5.75,35.35v240h-70.7Z" transform="translate(-87.97 -171.84)"/><path class="cls-35" d="M124.8,320.59c0-41.1-.82-74.81-3.29-107.69h63.3L188.1,277h2.46c22.2-37.81,59.19-73.16,125-73.16,54.25,0,95.36,32.88,112.62,79.74h1.65c12.33-22.2,27.95-39.46,44.39-51.79,23.84-18.09,50.14-27.95,88-27.95,52.61,0,130.71,34.53,130.71,172.63V610.78h-70.7V385.54c0-76.46-27.95-122.49-86.32-122.49-41.1,0-73.16,30.41-85.49,65.76A119.11,119.11,0,0,0,444.58,365v245.8h-70.7V372.38c0-63.3-27.95-109.33-83-109.33-45.22,0-78.1,36.17-89.61,72.34-4.11,10.69-5.75,23-5.75,35.35v240H124.8Z" transform="translate(-87.97 -171.84)"/><path class="cls-36" d="M124.34,320.15c0-41.1-.82-74.81-3.29-107.69h63.3l3.29,64.12h2.46c22.2-37.81,59.19-73.16,125-73.16,54.25,0,95.36,32.88,112.62,79.74h1.64c12.34-22.2,27.95-39.46,44.4-51.79,23.84-18.09,50.14-28,88-28,52.61,0,130.71,34.52,130.71,172.63V610.34h-70.7V385.1c0-76.46-28-122.49-86.32-122.49-41.1,0-73.16,30.41-85.49,65.76a119.11,119.11,0,0,0-5.76,36.17v245.8h-70.7V371.94c0-63.3-27.95-109.33-83-109.33-45.22,0-78.1,36.17-89.61,72.34-4.11,10.69-5.75,23-5.75,35.35v240h-70.7Z" transform="translate(-87.97 -171.84)"/><path class="cls-37" d="M123.88,319.71c0-41.1-.82-74.81-3.29-107.69h63.3l3.29,64.12h2.46c22.2-37.81,59.19-73.16,125-73.16,54.25,0,95.36,32.88,112.62,79.74h1.64c12.34-22.2,27.95-39.46,44.4-51.79,23.84-18.09,50.14-28,88-28,52.61,0,130.71,34.52,130.71,172.63V609.9h-70.7V384.65c0-76.45-28-122.48-86.32-122.48-41.1,0-73.16,30.41-85.49,65.76a119.11,119.11,0,0,0-5.76,36.17V609.9H373V371.5c0-63.3-27.95-109.33-83-109.33-45.21,0-78.09,36.17-89.6,72.34-4.11,10.69-5.75,23-5.75,35.35v240h-70.7Z" transform="translate(-87.97 -171.84)"/><path class="cls-38" d="M123.42,319.27c0-41.1-.82-74.81-3.29-107.69h63.3l3.29,64.12h2.46c22.2-37.81,59.19-73.16,125-73.16,54.25,0,95.36,32.88,112.62,79.74h1.64c12.34-22.2,28-39.46,44.4-51.79,23.83-18.09,50.14-28,88-28,52.61,0,130.71,34.52,130.71,172.63V609.46h-70.7V384.21c0-76.45-27.95-122.48-86.32-122.48-41.1,0-73.16,30.41-85.5,65.76a119.43,119.43,0,0,0-5.75,36.17v245.8H372.5V371.06c0-63.3-27.95-109.33-83-109.33-45.21,0-78.09,36.17-89.6,72.34-4.11,10.68-5.75,23-5.75,35.35v240h-70.7Z" transform="translate(-87.97 -171.84)"/><path class="cls-39" d="M123,318.83c0-41.1-.83-74.81-3.29-107.69H183l3.29,64.12h2.46c22.2-37.82,59.19-73.16,125-73.16,54.25,0,95.36,32.88,112.62,79.74h1.64c12.33-22.2,27.95-39.46,44.4-51.79,23.83-18.09,50.14-28,88-28,52.61,0,130.7,34.52,130.7,172.63V609H620.31V383.77c0-76.45-27.95-122.48-86.32-122.48-41.1,0-73.16,30.41-85.5,65.76a119.43,119.43,0,0,0-5.75,36.17V609H372V370.62c0-63.3-28-109.33-83-109.33-45.21,0-78.09,36.17-89.6,72.34-4.11,10.68-5.76,23-5.76,35.35V609H123Z" transform="translate(-87.97 -171.84)"/><path class="cls-40" d="M122.5,318.39c0-41.1-.83-74.81-3.29-107.69h63.3l3.29,64.12h2.46c22.2-37.82,59.19-73.16,125-73.16,54.25,0,95.35,32.88,112.62,79.74h1.64c12.33-22.2,27.95-39.46,44.39-51.79,23.84-18.09,50.15-28,88-28,52.61,0,130.7,34.52,130.7,172.63V608.58H619.85V383.33c0-76.45-28-122.49-86.32-122.49-41.1,0-73.16,30.42-85.5,65.77a119.38,119.38,0,0,0-5.75,36.17v245.8h-70.7V370.18c0-63.3-27.95-109.34-83-109.34-45.21,0-78.09,36.18-89.6,72.35-4.11,10.68-5.76,23-5.76,35.34V608.58H122.5Z" transform="translate(-87.97 -171.84)"/><path class="cls-41" d="M122,318c0-41.11-.83-74.81-3.29-107.69h63.3l3.28,64.12h2.47c22.2-37.82,59.19-73.17,125-73.17,54.25,0,95.35,32.89,112.62,79.75H427c12.33-22.2,28-39.46,44.39-51.79,23.84-18.09,50.15-28,88-28,52.61,0,130.7,34.53,130.7,172.64V608.14H619.39V382.89c0-76.45-27.95-122.49-86.32-122.49-41.1,0-73.17,30.42-85.5,65.77a119.38,119.38,0,0,0-5.75,36.17v245.8h-70.7V369.74c0-63.3-27.95-109.34-83-109.34-45.21,0-78.09,36.17-89.6,72.35-4.11,10.68-5.76,23-5.76,35.34V608.14H122Z" transform="translate(-87.97 -171.84)"/><path class="cls-42" d="M121.58,317.51c0-41.11-.83-74.81-3.29-107.69h63.3l3.28,64.12h2.47c22.2-37.82,59.19-73.17,125-73.17,54.25,0,95.35,32.89,112.62,79.74h1.64c12.33-22.19,27.95-39.45,44.39-51.79,23.84-18.08,50.15-27.95,88-27.95,52.62,0,130.71,34.53,130.71,172.64V607.7H618.93V382.45C618.93,306,591,260,532.61,260c-41.1,0-73.17,30.42-85.5,65.77a119.38,119.38,0,0,0-5.75,36.17V607.7h-70.7V369.3c0-63.3-28-109.34-83-109.34-45.21,0-78.09,36.17-89.6,72.34-4.11,10.69-5.76,23-5.76,35.35V607.7H121.58Z" transform="translate(-87.97 -171.84)"/><path class="cls-43" d="M121.11,317.07c0-41.11-.82-74.81-3.28-107.69h63.3l3.28,64.12h2.47c22.2-37.82,59.19-73.17,125-73.17,54.26,0,95.36,32.89,112.63,79.74h1.64c12.33-22.19,27.95-39.45,44.39-51.79,23.84-18.08,50.15-27.95,88-27.95,52.62,0,130.71,34.53,130.71,172.64V607.26H618.47V382c0-76.45-28-122.49-86.32-122.49-41.1,0-73.17,30.42-85.5,65.77a119.38,119.38,0,0,0-5.75,36.17v245.8H370.2V368.86c0-63.3-27.95-109.34-83-109.34-45.21,0-78.09,36.17-89.6,72.34-4.11,10.69-5.76,23-5.76,35.35V607.26h-70.7Z" transform="translate(-87.97 -171.84)"/><path class="cls-44" d="M120.65,316.63c0-41.11-.82-74.81-3.28-107.69h63.3L184,273.06h2.47c22.2-37.82,59.19-73.17,125-73.17,54.26,0,95.36,32.89,112.63,79.74h1.64C438,257.44,453.59,240.17,470,227.84c23.84-18.08,50.15-28,88-28,52.62,0,130.71,34.53,130.71,172.64V606.82H618V381.57c0-76.45-28-122.49-86.32-122.49-41.1,0-73.17,30.42-85.5,65.77A119.38,119.38,0,0,0,440.44,361v245.8h-70.7V368.42c0-63.3-27.95-109.34-83-109.34-45.21,0-78.09,36.17-89.6,72.34-4.11,10.69-5.76,23-5.76,35.35V606.82h-70.7Z" transform="translate(-87.97 -171.84)"/><path class="cls-45" d="M120.19,316.19c0-41.11-.82-74.81-3.28-107.69h63.3l3.28,64.12H186c22.2-37.82,59.19-73.17,125-73.17,54.26,0,95.36,32.89,112.63,79.74h1.64c12.33-22.19,27.95-39.46,44.39-51.79,23.84-18.08,50.15-28,88-28,52.62,0,130.71,34.53,130.71,172.64V606.38H617.55V381.13c0-76.45-28-122.49-86.32-122.49-41.11,0-73.17,30.42-85.5,65.77A119,119,0,0,0,440,360.58v245.8h-70.7V368c0-63.3-27.95-109.34-83-109.34-45.21,0-78.09,36.17-89.6,72.34-4.11,10.69-5.76,23-5.76,35.35V606.38h-70.7Z" transform="translate(-87.97 -171.84)"/><path class="cls-46" d="M119.73,315.75c0-41.11-.82-74.81-3.28-107.7h63.29L183,272.18h2.47c22.19-37.82,59.19-73.17,125-73.17,54.26,0,95.36,32.88,112.63,79.74h1.64c12.33-22.19,27.95-39.46,44.39-51.79,23.84-18.08,50.15-28,88-28,52.62,0,130.71,34.53,130.71,172.64V605.94h-70.7V380.69c0-76.45-28-122.49-86.31-122.49-41.11,0-73.17,30.42-85.5,65.77a119,119,0,0,0-5.75,36.17v245.8h-70.7V367.54c0-63.3-27.95-109.34-83-109.34-45.21,0-78.1,36.17-89.6,72.34-4.11,10.69-5.76,23-5.76,35.35V605.94h-70.7Z" transform="translate(-87.97 -171.84)"/><path class="cls-47" d="M119.27,315.31c0-41.11-.82-74.81-3.28-107.7h63.29l3.29,64.13H185c22.19-37.82,59.19-73.17,125-73.17,54.26,0,95.36,32.88,112.63,79.74h1.64c12.33-22.19,27.95-39.46,44.39-51.79,23.84-18.08,50.15-28,88-28,52.62,0,130.71,34.53,130.71,172.64V605.49h-70.7V380.25c0-76.45-28-122.49-86.31-122.49-41.11,0-73.17,30.42-85.5,65.77a119,119,0,0,0-5.75,36.17V605.49h-70.7V367.1c0-63.3-27.95-109.34-83-109.34-45.21,0-78.1,36.17-89.6,72.34-4.11,10.69-5.76,23-5.76,35.35v240h-70.7Z" transform="translate(-87.97 -171.84)"/><path class="cls-48" d="M118.81,314.86c0-41.1-.82-74.8-3.29-107.69h63.3l3.29,64.13h2.47c22.19-37.82,59.19-73.17,124.95-73.17,54.26,0,95.36,32.88,112.63,79.74h1.64c12.33-22.19,27.95-39.46,44.39-51.79,23.84-18.08,50.15-28,88-28,52.61,0,130.71,34.53,130.71,172.64V605.05h-70.7V379.81c0-76.45-27.95-122.49-86.31-122.49-41.11,0-73.17,30.42-85.5,65.77a119,119,0,0,0-5.75,36.17V605.05H367.9V366.66c0-63.3-27.95-109.34-83-109.34-45.21,0-78.1,36.17-89.6,72.34-4.12,10.69-5.76,23-5.76,35.35v240h-70.7Z" transform="translate(-87.97 -171.84)"/><path class="cls-49" d="M118.35,314.42c0-41.1-.82-74.8-3.29-107.69h63.3l3.29,64.12h2.47c22.19-37.81,59.19-73.16,125-73.16,54.26,0,95.36,32.88,112.62,79.74h1.65c12.33-22.2,28-39.46,44.39-51.79,23.84-18.08,50.15-27.95,88-27.95,52.61,0,130.71,34.53,130.71,172.63V604.61H615.7V379.37c0-76.46-28-122.49-86.31-122.49-41.11,0-73.17,30.42-85.5,65.76a119.14,119.14,0,0,0-5.75,36.18V604.61h-70.7V366.21c0-63.3-27.95-109.33-83-109.33-45.21,0-78.1,36.17-89.61,72.34-4.11,10.69-5.75,23-5.75,35.35v240h-70.7Z" transform="translate(-87.97 -171.84)"/><path class="cls-50" d="M117.89,314c0-41.1-.82-74.8-3.29-107.69h63.3l3.29,64.12h2.47c22.19-37.81,59.19-73.16,125-73.16,54.26,0,95.36,32.88,112.62,79.74h1.65c12.33-22.2,27.95-39.46,44.39-51.79,23.84-18.09,50.15-27.95,88-27.95,52.61,0,130.71,34.53,130.71,172.63V604.17h-70.7V378.93c0-76.46-28-122.49-86.31-122.49-41.11,0-73.17,30.42-85.5,65.76a119.12,119.12,0,0,0-5.75,36.17v245.8H367V365.77c0-63.3-28-109.33-83-109.33-45.21,0-78.1,36.17-89.61,72.34-4.11,10.69-5.75,23-5.75,35.35v240h-70.7Z" transform="translate(-87.97 -171.84)"/><path class="cls-51" d="M117.43,313.54c0-41.1-.82-74.81-3.29-107.69h63.3L180.73,270h2.47c22.19-37.81,59.19-73.16,125-73.16,54.26,0,95.36,32.88,112.62,79.74h1.65c12.33-22.2,27.95-39.46,44.39-51.79,23.84-18.09,50.15-27.95,88-27.95,52.61,0,130.71,34.53,130.71,172.63V603.73h-70.7V378.49C614.78,302,586.83,256,528.47,256c-41.11,0-73.17,30.42-85.5,65.76a119.12,119.12,0,0,0-5.75,36.17v245.8h-70.7V365.33c0-63.3-27.95-109.33-83-109.33-45.21,0-78.1,36.17-89.61,72.34-4.11,10.69-5.75,23-5.75,35.35v240h-70.7Z" transform="translate(-87.97 -171.84)"/><path class="cls-52" d="M117,313.1c0-41.1-.82-74.81-3.29-107.69H177l3.29,64.12h2.47c22.19-37.81,59.19-73.16,125-73.16,54.26,0,95.36,32.88,112.62,79.74H422c12.33-22.2,28-39.46,44.39-51.79,23.84-18.09,50.15-27.95,88-27.95C606.92,196.37,685,230.9,685,369V603.29h-70.7V378.05c0-76.46-28-122.49-86.32-122.49-41.1,0-73.16,30.41-85.49,65.76a119.12,119.12,0,0,0-5.75,36.17v245.8h-70.7V364.89c0-63.3-27.95-109.33-83-109.33-45.21,0-78.1,36.17-89.61,72.34-4.11,10.69-5.75,23-5.75,35.35v240H117Z" transform="translate(-87.97 -171.84)"/><path class="cls-53" d="M116.51,312.66c0-41.1-.82-74.81-3.29-107.69h63.3l3.29,64.12h2.47c22.19-37.81,59.19-73.16,125-73.16,54.26,0,95.36,32.88,112.62,79.74h1.65c12.33-22.2,27.95-39.46,44.39-51.79,23.84-18.09,50.15-27.95,88-27.95,52.61,0,130.71,34.52,130.71,172.63V602.85h-70.7V377.61c0-76.46-28-122.49-86.32-122.49-41.1,0-73.16,30.41-85.49,65.76a119.11,119.11,0,0,0-5.76,36.17v245.8H365.6V364.45c0-63.3-28-109.33-83-109.33-45.21,0-78.1,36.17-89.61,72.34-4.11,10.69-5.75,23-5.75,35.35v240h-70.7Z" transform="translate(-87.97 -171.84)"/><path class="cls-54" d="M116.05,312.22c0-41.1-.82-74.81-3.29-107.69h63.3l3.29,64.12h2.47c22.19-37.81,59.18-73.16,125-73.16,54.26,0,95.36,32.88,112.62,79.74H421c12.33-22.2,27.95-39.46,44.39-51.79,23.84-18.09,50.14-27.95,88-27.95C606,195.49,684.1,230,684.1,368.12V602.41H613.4V377.16c0-76.45-27.95-122.48-86.32-122.48-41.1,0-73.16,30.41-85.49,65.76a119.11,119.11,0,0,0-5.76,36.17v245.8H365.14V364c0-63.3-27.95-109.33-83-109.33-45.22,0-78.1,36.17-89.61,72.34-4.11,10.69-5.75,23-5.75,35.35v240h-70.7Z" transform="translate(-87.97 -171.84)"/><path class="cls-55" d="M115.59,311.78c0-41.1-.82-74.81-3.29-107.69h63.3l3.29,64.12h2.47c22.19-37.81,59.18-73.16,125-73.16,54.26,0,95.36,32.88,112.62,79.74h1.65c12.33-22.2,27.95-39.46,44.39-51.79,23.84-18.09,50.14-27.95,88-27.95,52.61,0,130.71,34.52,130.71,172.63V602h-70.7V376.72c0-76.45-28-122.48-86.32-122.48-41.1,0-73.16,30.41-85.49,65.76a119.11,119.11,0,0,0-5.76,36.17V602H364.68V363.57c0-63.3-27.95-109.33-83-109.33-45.22,0-78.1,36.17-89.61,72.34-4.11,10.68-5.75,23-5.75,35.35V602h-70.7Z" transform="translate(-87.97 -171.84)"/><path class="cls-56" d="M115.13,311.34c0-41.1-.82-74.81-3.29-107.69h63.3l3.29,64.12h2.47c22.19-37.82,59.18-73.16,125-73.16,54.26,0,95.36,32.88,112.62,79.74h1.65c12.33-22.2,27.95-39.46,44.39-51.79,23.84-18.09,50.14-27.95,88-27.95,52.61,0,130.71,34.52,130.71,172.63V601.53h-70.7V376.28c0-76.45-28-122.48-86.32-122.48-41.1,0-73.16,30.41-85.49,65.76a119.11,119.11,0,0,0-5.76,36.17v245.8H364.22V363.13c0-63.3-28-109.33-83-109.33-45.22,0-78.1,36.17-89.61,72.34-4.11,10.68-5.75,23-5.75,35.35v240h-70.7Z" transform="translate(-87.97 -171.84)"/><path class="cls-57" d="M114.67,310.9c0-41.1-.82-74.81-3.29-107.69h63.3L178,267.33h2.46c22.2-37.82,59.19-73.16,125-73.16,54.26,0,95.36,32.88,112.62,79.74h1.65c12.33-22.2,27.95-39.46,44.39-51.79,23.84-18.09,50.14-28,88-28,52.61,0,130.71,34.52,130.71,172.63V601.09H612V375.84c0-76.45-27.95-122.49-86.32-122.49-41.1,0-73.16,30.42-85.49,65.77a119.06,119.06,0,0,0-5.76,36.17v245.8H363.76V362.69c0-63.3-27.95-109.34-83-109.34-45.22,0-78.1,36.18-89.61,72.35-4.11,10.68-5.75,23-5.75,35.34V601.09h-70.7Z" transform="translate(-87.97 -171.84)"/><path class="cls-58" d="M114.21,310.46c0-41.11-.82-74.81-3.29-107.69h63.3l3.29,64.12H180c22.2-37.82,59.19-73.17,125-73.17,54.25,0,95.36,32.89,112.62,79.75h1.65c12.33-22.2,27.95-39.46,44.39-51.79,23.84-18.09,50.14-28,88-28,52.61,0,130.71,34.53,130.71,172.64V600.65h-70.7V375.4c0-76.45-27.95-122.49-86.32-122.49-41.1,0-73.16,30.42-85.49,65.77A119.06,119.06,0,0,0,434,354.85v245.8H363.3V362.25c0-63.3-27.95-109.34-83-109.34-45.22,0-78.1,36.17-89.61,72.35-4.11,10.68-5.75,23-5.75,35.34v240h-70.7Z" transform="translate(-87.97 -171.84)"/><path class="cls-59" d="M113.75,310c0-41.11-.82-74.81-3.29-107.69h63.3l3.29,64.12h2.46c22.2-37.82,59.19-73.17,125-73.17,54.25,0,95.36,32.89,112.62,79.74h1.65c12.33-22.19,27.95-39.45,44.39-51.79,23.84-18.08,50.14-27.95,88-27.95,52.61,0,130.71,34.53,130.71,172.64V600.21H611.1V375c0-76.45-28-122.49-86.32-122.49-41.1,0-73.16,30.42-85.49,65.77a119.06,119.06,0,0,0-5.76,36.17v245.8h-70.7V361.81c0-63.3-27.94-109.34-83-109.34-45.22,0-78.1,36.17-89.61,72.34-4.11,10.69-5.75,23-5.75,35.35V600.21h-70.7Z" transform="translate(-87.97 -171.84)"/><path class="cls-60" d="M113.29,309.58c0-41.11-.82-74.81-3.29-107.69h63.3L176.59,266h2.46c22.2-37.82,59.19-73.17,125-73.17,54.25,0,95.36,32.89,112.62,79.74h1.65c12.33-22.19,28-39.45,44.39-51.79,23.84-18.08,50.14-27.95,88-27.95,52.61,0,130.71,34.53,130.71,172.64V599.77h-70.7V374.52c0-76.45-27.95-122.49-86.32-122.49-41.1,0-73.16,30.42-85.49,65.77A119.06,119.06,0,0,0,433.07,354v245.8h-70.7V361.37c0-63.3-27.95-109.34-83-109.34-45.22,0-78.1,36.17-89.61,72.34-4.11,10.69-5.75,23-5.75,35.35v240h-70.7Z" transform="translate(-87.97 -171.84)"/><path class="cls-61" d="M112.83,309.14c0-41.11-.82-74.81-3.29-107.69h63.3l3.29,64.12h2.46c22.2-37.82,59.19-73.17,125-73.17,54.25,0,95.36,32.89,112.62,79.74h1.64c12.34-22.19,27.95-39.46,44.4-51.79,23.84-18.08,50.14-27.95,88-27.95,52.61,0,130.71,34.53,130.71,172.64V599.33h-70.7V374.08c0-76.45-27.95-122.49-86.32-122.49-41.1,0-73.16,30.42-85.49,65.77a119.06,119.06,0,0,0-5.76,36.17v245.8h-70.7V360.93c0-63.3-28-109.34-83-109.34-45.22,0-78.1,36.17-89.61,72.34-4.11,10.69-5.75,23-5.75,35.35V599.33h-70.7Z" transform="translate(-87.97 -171.84)"/><path class="cls-62" d="M112.37,308.7c0-41.11-.82-74.81-3.29-107.69h63.3l3.29,64.12h2.46c22.2-37.82,59.19-73.17,125-73.17,54.25,0,95.36,32.89,112.62,79.74h1.64c12.34-22.19,27.95-39.46,44.4-51.79,23.84-18.08,50.14-27.95,88-27.95,52.61,0,130.71,34.53,130.71,172.64V598.89h-70.7V373.64c0-76.45-28-122.49-86.32-122.49-41.1,0-73.16,30.42-85.49,65.77a119,119,0,0,0-5.76,36.17v245.8h-70.7V360.49c0-63.3-27.95-109.34-83-109.34-45.21,0-78.09,36.17-89.6,72.34-4.11,10.69-5.75,23-5.75,35.35V598.89h-70.7Z" transform="translate(-87.97 -171.84)"/><path class="cls-63" d="M111.91,308.26c0-41.11-.82-74.81-3.29-107.7h63.3l3.29,64.13h2.46c22.2-37.82,59.19-73.17,125-73.17,54.25,0,95.36,32.88,112.62,79.74h1.64c12.34-22.19,27.95-39.46,44.4-51.79,23.83-18.08,50.14-27.95,88-27.95,52.61,0,130.71,34.53,130.71,172.64V598.45h-70.7V373.2c0-76.45-28-122.49-86.32-122.49-41.1,0-73.16,30.42-85.5,65.77a119.33,119.33,0,0,0-5.75,36.17v245.8H361V360.05c0-63.3-27.95-109.34-83-109.34-45.21,0-78.09,36.17-89.6,72.34-4.11,10.69-5.75,23-5.75,35.35V598.45h-70.7Z" transform="translate(-87.97 -171.84)"/><path class="cls-64" d="M111.45,307.82c0-41.11-.83-74.81-3.29-107.7h63.3l3.29,64.13h2.46c22.2-37.82,59.19-73.17,125-73.17,54.25,0,95.36,32.88,112.62,79.74h1.64c12.34-22.19,27.95-39.46,44.4-51.79,23.83-18.08,50.14-27.95,88-27.95,52.61,0,130.71,34.53,130.71,172.64V598H608.8V372.76c0-76.45-27.95-122.49-86.32-122.49-41.1,0-73.16,30.42-85.5,65.77a119.33,119.33,0,0,0-5.75,36.17V598h-70.7V359.61c0-63.3-27.95-109.34-83-109.34-45.21,0-78.09,36.17-89.6,72.34-4.11,10.69-5.76,23-5.76,35.35V598H111.45Z" transform="translate(-87.97 -171.84)"/><path class="cls-65" d="M111,307.37c0-41.1-.83-74.8-3.29-107.69H171l3.29,64.13h2.46c22.2-37.82,59.19-73.17,125-73.17,54.25,0,95.35,32.88,112.62,79.74H416c12.33-22.19,27.95-39.46,44.39-51.79,23.84-18.08,50.15-28,88-28,52.61,0,130.7,34.53,130.7,172.64V597.56H608.34V372.32c0-76.45-28-122.49-86.32-122.49-41.1,0-73.16,30.42-85.5,65.77a119.33,119.33,0,0,0-5.75,36.17V597.56h-70.7V359.17c0-63.3-27.95-109.34-83-109.34-45.21,0-78.09,36.17-89.6,72.34-4.11,10.69-5.76,23-5.76,35.35v240H111Z" transform="translate(-87.97 -171.84)"/><path class="cls-66" d="M110.53,306.93c0-41.1-.83-74.8-3.29-107.69h63.3l3.28,64.12h2.47c22.2-37.81,59.19-73.16,125-73.16,54.25,0,95.35,32.88,112.62,79.74h1.64c12.33-22.2,27.95-39.46,44.39-51.79,23.84-18.08,50.15-28,88-28,52.61,0,130.7,34.53,130.7,172.63V597.12H607.88V371.88c0-76.46-28-122.49-86.32-122.49-41.1,0-73.17,30.42-85.5,65.76a119.45,119.45,0,0,0-5.75,36.18V597.12h-70.7V358.72c0-63.3-27.95-109.33-83-109.33-45.21,0-78.09,36.17-89.6,72.34-4.11,10.69-5.76,23-5.76,35.35v240H110.53Z" transform="translate(-87.97 -171.84)"/><path class="cls-67" d="M110.07,306.49c0-41.1-.83-74.8-3.29-107.69h63.3l3.28,64.12h2.47c22.2-37.81,59.19-73.16,125-73.16,54.25,0,95.35,32.88,112.62,79.74h1.64C427.38,247.3,443,230,459.44,217.71c23.84-18.09,50.15-28,88-28,52.61,0,130.7,34.53,130.7,172.63V596.68H607.42V371.44C607.42,295,579.47,249,521.1,249c-41.1,0-73.17,30.42-85.5,65.76a119.43,119.43,0,0,0-5.75,36.17v245.8h-70.7V358.28c0-63.3-27.95-109.33-83-109.33-45.21,0-78.09,36.17-89.6,72.34-4.11,10.69-5.76,23-5.76,35.35v240H110.07Z" transform="translate(-87.97 -171.84)"/><path class="cls-68" d="M109.6,306.05c0-41.1-.82-74.81-3.28-107.69h63.3l3.28,64.12h2.47c22.2-37.81,59.19-73.16,125-73.16,54.25,0,95.35,32.88,112.62,79.74h1.64c12.33-22.2,28-39.46,44.39-51.79,23.84-18.09,50.15-28,88-28,52.62,0,130.71,34.53,130.71,172.63V596.24H607V371c0-76.46-28-122.49-86.32-122.49-41.1,0-73.17,30.41-85.5,65.76a119.43,119.43,0,0,0-5.75,36.17v245.8h-70.7V357.84c0-63.3-27.95-109.33-83-109.33-45.21,0-78.09,36.17-89.6,72.34-4.11,10.69-5.76,23-5.76,35.35v240H109.6Z" transform="translate(-87.97 -171.84)"/><path class="cls-69" d="M109.14,305.61c0-41.1-.82-74.81-3.28-107.69h63.3L172.44,262h2.47c22.2-37.81,59.19-73.16,125-73.16,54.26,0,95.36,32.88,112.63,79.74h1.64c12.33-22.2,27.95-39.46,44.39-51.79,23.84-18.09,50.15-28,88-28,52.62,0,130.71,34.53,130.71,172.63V595.8H606.5V370.56c0-76.46-28-122.49-86.32-122.49-41.1,0-73.17,30.41-85.5,65.76A119.43,119.43,0,0,0,428.93,350V595.8h-70.7V357.4c0-63.3-28-109.33-83-109.33-45.21,0-78.09,36.17-89.6,72.34-4.11,10.69-5.76,23-5.76,35.35v240h-70.7Z" transform="translate(-87.97 -171.84)"/><path class="cls-70" d="M108.68,305.17c0-41.1-.82-74.81-3.28-107.69h63.3L172,261.6h2.47c22.2-37.81,59.19-73.16,125-73.16,54.26,0,95.36,32.88,112.63,79.74h1.64c12.33-22.2,27.95-39.46,44.39-51.79,23.84-18.09,50.15-27.95,88-27.95,52.62,0,130.71,34.52,130.71,172.63V595.36H606V370.12c0-76.46-28-122.49-86.32-122.49-41.11,0-73.17,30.41-85.5,65.76a119.12,119.12,0,0,0-5.75,36.17v245.8h-70.7V357c0-63.3-27.95-109.33-83-109.33-45.21,0-78.09,36.17-89.6,72.34-4.11,10.69-5.76,23-5.76,35.35v240h-70.7Z" transform="translate(-87.97 -171.84)"/><path class="cls-71" d="M108.22,304.73c0-41.1-.82-74.81-3.28-107.69h63.3l3.28,64.12H174c22.19-37.81,59.19-73.16,125-73.16,54.26,0,95.36,32.88,112.63,79.74h1.64c12.33-22.2,28-39.46,44.39-51.79,23.84-18.09,50.15-27.95,88-27.95,52.62,0,130.71,34.52,130.71,172.63V594.92h-70.7V369.67c0-76.45-28-122.48-86.31-122.48-41.11,0-73.17,30.41-85.5,65.76A119.12,119.12,0,0,0,428,349.12v245.8h-70.7V356.52c0-63.3-27.95-109.33-83-109.33-45.21,0-78.1,36.17-89.6,72.34-4.11,10.69-5.76,23-5.76,35.35v240h-70.7Z" transform="translate(-87.97 -171.84)"/><path class="cls-72" d="M107.76,304.29c0-41.1-.82-74.81-3.28-107.69h63.29l3.29,64.12h2.47c22.19-37.81,59.19-73.16,125-73.16,54.26,0,95.36,32.88,112.63,79.74h1.64c12.33-22.2,27.95-39.46,44.39-51.79,23.84-18.09,50.15-27.95,88-27.95,52.62,0,130.71,34.52,130.71,172.63V594.48h-70.7V369.23c0-76.45-28-122.48-86.31-122.48-41.11,0-73.17,30.41-85.5,65.76a119.12,119.12,0,0,0-5.75,36.17v245.8h-70.7V356.08c0-63.3-28-109.33-83-109.33-45.21,0-78.1,36.17-89.6,72.34-4.11,10.68-5.76,23-5.76,35.35v240h-70.7Z" transform="translate(-87.97 -171.84)"/><path class="cls-73" d="M107.3,303.85c0-41.1-.82-74.81-3.28-107.69h63.29l3.29,64.12h2.47c22.19-37.82,59.19-73.16,125-73.16,54.26,0,95.36,32.88,112.63,79.74h1.64c12.33-22.2,27.95-39.46,44.39-51.79,23.84-18.09,50.15-27.95,88-27.95,52.61,0,130.71,34.52,130.71,172.63V594h-70.7V368.79c0-76.45-27.95-122.48-86.31-122.48-41.11,0-73.17,30.41-85.5,65.76a119.12,119.12,0,0,0-5.75,36.17V594h-70.7V355.64c0-63.3-27.95-109.33-83-109.33-45.21,0-78.1,36.17-89.6,72.34-4.12,10.68-5.76,23-5.76,35.35V594H107.3Z" transform="translate(-87.97 -171.84)"/><path class="cls-74" d="M106.84,303.41c0-41.1-.82-74.81-3.29-107.69h63.3l3.29,64.12h2.47c22.19-37.82,59.19-73.16,125-73.16,54.26,0,95.36,32.88,112.62,79.74h1.65c12.33-22.2,27.95-39.46,44.39-51.79,23.84-18.09,50.15-27.95,88-27.95,52.61,0,130.71,34.52,130.71,172.63V593.6h-70.7V368.35c0-76.45-28-122.49-86.31-122.49-41.11,0-73.17,30.42-85.5,65.77a119.07,119.07,0,0,0-5.75,36.17V593.6h-70.7V355.2c0-63.3-27.95-109.34-83-109.34-45.21,0-78.1,36.18-89.61,72.35-4.11,10.68-5.75,23-5.75,35.34V593.6h-70.7Z" transform="translate(-87.97 -171.84)"/><path class="cls-75" d="M106.38,303c0-41.11-.82-74.81-3.29-107.69h63.3l3.29,64.12h2.47c22.19-37.82,59.19-73.17,125-73.17,54.26,0,95.36,32.89,112.62,79.74h1.65c12.33-22.19,27.95-39.45,44.39-51.78,23.84-18.09,50.15-28,88-28,52.61,0,130.71,34.53,130.71,172.64V593.16h-70.7V367.91c0-76.45-28-122.49-86.31-122.49-41.11,0-73.17,30.42-85.5,65.77a119.07,119.07,0,0,0-5.75,36.17v245.8h-70.7V354.76c0-63.3-28-109.34-83-109.34-45.21,0-78.1,36.17-89.61,72.35-4.11,10.68-5.75,23-5.75,35.34v240h-70.7Z" transform="translate(-87.97 -171.84)"/><path class="cls-76" d="M105.92,302.53c0-41.11-.82-74.81-3.29-107.69h63.3L169.22,259h2.47c22.19-37.82,59.19-73.17,125-73.17,54.26,0,95.36,32.89,112.62,79.74h1.65c12.33-22.19,27.95-39.45,44.39-51.79,23.84-18.08,50.15-28,88-28,52.61,0,130.71,34.53,130.71,172.64V592.72h-70.7V367.47C603.27,291,575.32,245,517,245c-41.11,0-73.17,30.42-85.5,65.77a119.07,119.07,0,0,0-5.75,36.17v245.8H355V354.32C355,291,327.06,245,272,245c-45.21,0-78.1,36.17-89.61,72.34-4.11,10.69-5.75,23-5.75,35.35V592.72h-70.7Z" transform="translate(-87.97 -171.84)"/><path class="cls-77" d="M105.46,302.09c0-41.11-.82-74.81-3.29-107.69h63.3l3.29,64.12h2.47c22.19-37.82,59.19-73.17,125-73.17,54.26,0,95.36,32.89,112.62,79.74h1.65c12.33-22.19,27.95-39.45,44.39-51.79,23.84-18.08,50.15-28,88-28,52.61,0,130.71,34.53,130.71,172.64V592.28h-70.7V367c0-76.45-27.95-122.49-86.32-122.49-41.1,0-73.16,30.42-85.49,65.77a119.07,119.07,0,0,0-5.75,36.17v245.8h-70.7V353.88c0-63.3-27.95-109.34-83-109.34-45.21,0-78.1,36.17-89.61,72.34-4.11,10.69-5.75,23-5.75,35.35v240h-70.7Z" transform="translate(-87.97 -171.84)"/><path class="cls-78" d="M105,301.65c0-41.11-.82-74.81-3.29-107.69H165l3.29,64.12h2.47c22.19-37.82,59.19-73.17,125-73.17,54.26,0,95.36,32.89,112.62,79.74H410c12.33-22.19,27.95-39.46,44.39-51.79,23.84-18.08,50.15-28,88-28,52.61,0,130.71,34.53,130.71,172.64V591.84h-70.7V366.59c0-76.45-28-122.49-86.32-122.49-41.1,0-73.16,30.42-85.49,65.77A119.06,119.06,0,0,0,424.78,346v245.8H354.09V353.44c0-63.3-27.95-109.34-83-109.34-45.21,0-78.1,36.17-89.61,72.34-4.11,10.69-5.75,23-5.75,35.35V591.84H105Z" transform="translate(-87.97 -171.84)"/><path class="cls-79" d="M104.54,301.21c0-41.11-.82-74.81-3.29-107.69h63.3l3.29,64.12h2.47c22.19-37.82,59.18-73.17,125-73.17,54.26,0,95.36,32.89,112.62,79.74h1.65c12.33-22.19,28-39.46,44.39-51.79,23.84-18.08,50.14-27.95,88-27.95,52.61,0,130.71,34.53,130.71,172.64V591.4h-70.7V366.15c0-76.45-27.95-122.49-86.32-122.49-41.1,0-73.16,30.42-85.49,65.77a119,119,0,0,0-5.76,36.17V591.4H353.63V353c0-63.3-27.95-109.34-83-109.34-45.22,0-78.1,36.17-89.61,72.34-4.11,10.69-5.75,23-5.75,35.35v240h-70.7Z" transform="translate(-87.97 -171.84)"/><path class="cls-80" d="M104.08,300.77c0-41.11-.82-74.81-3.29-107.7h63.3l3.29,64.13h2.47C192,219.38,229,184,294.8,184c54.26,0,95.36,32.88,112.62,79.74h1.65C421.4,241.58,437,224.31,453.46,212,477.3,193.9,503.6,184,541.42,184c52.61,0,130.71,34.53,130.71,172.64V591h-70.7V365.71c0-76.45-27.95-122.49-86.32-122.49-41.1,0-73.16,30.42-85.49,65.77a119,119,0,0,0-5.76,36.17V591H353.17V352.56c0-63.3-27.95-109.34-83-109.34-45.22,0-78.1,36.17-89.61,72.34-4.11,10.69-5.75,23-5.75,35.35V591h-70.7Z" transform="translate(-87.97 -171.84)"/><path class="cls-81" d="M103.62,300.33c0-41.11-.82-74.81-3.29-107.7h63.3l3.29,64.13h2.47c22.19-37.82,59.18-73.17,125-73.17,54.26,0,95.36,32.88,112.62,79.74h1.65c12.33-22.19,27.95-39.46,44.39-51.79,23.84-18.08,50.14-27.95,88-27.95,52.61,0,130.71,34.53,130.71,172.64V590.51H601V365.27c0-76.45-28-122.49-86.32-122.49-41.1,0-73.16,30.42-85.49,65.77a119,119,0,0,0-5.76,36.17V590.51H352.71V352.12c0-63.3-27.95-109.34-83-109.34-45.22,0-78.1,36.17-89.61,72.34-4.11,10.69-5.75,23-5.75,35.35v240h-70.7Z" transform="translate(-87.97 -171.84)"/><path class="cls-82" d="M103.16,299.88c0-41.1-.82-74.8-3.29-107.69h63.3l3.29,64.12h2.46c22.2-37.81,59.19-73.16,125-73.16,54.26,0,95.36,32.88,112.62,79.74h1.65c12.33-22.19,28-39.46,44.39-51.79,23.84-18.08,50.14-27.95,88-27.95,52.61,0,130.71,34.53,130.71,172.64V590.07h-70.7V364.83c0-76.45-28-122.49-86.32-122.49-41.1,0-73.16,30.42-85.49,65.77a119,119,0,0,0-5.76,36.17V590.07H352.25V351.67c0-63.29-27.95-109.33-83-109.33-45.22,0-78.1,36.17-89.61,72.34-4.11,10.69-5.75,23-5.75,35.35v240h-70.7Z" transform="translate(-87.97 -171.84)"/><path class="cls-83" d="M102.7,299.44c0-41.1-.82-74.8-3.29-107.69h63.3L166,255.87h2.46c22.2-37.81,59.19-73.16,125-73.16,54.26,0,95.36,32.88,112.62,79.74h1.65c12.33-22.2,27.95-39.46,44.39-51.79,23.84-18.08,50.14-27.95,88-27.95,52.61,0,130.71,34.53,130.71,172.63V589.63h-70.7V364.39c0-76.46-27.95-122.49-86.32-122.49-41.1,0-73.16,30.42-85.49,65.76a119.13,119.13,0,0,0-5.76,36.18V589.63H351.79V351.23c0-63.3-28-109.33-83-109.33-45.22,0-78.1,36.17-89.61,72.34-4.11,10.69-5.75,23-5.75,35.35v240H102.7Z" transform="translate(-87.97 -171.84)"/><path class="cls-84" d="M102.24,299c0-41.1-.82-74.8-3.29-107.69h63.3l3.29,64.12H168c22.2-37.81,59.19-73.16,125-73.16,54.25,0,95.36,32.88,112.62,79.74h1.65c12.33-22.2,27.95-39.46,44.39-51.79,23.84-18.09,50.14-27.95,88-27.95,52.61,0,130.71,34.53,130.71,172.63V589.19h-70.7V364c0-76.46-28-122.49-86.32-122.49-41.1,0-73.16,30.42-85.49,65.76A119.11,119.11,0,0,0,422,343.39v245.8H351.33V350.79c0-63.3-27.95-109.33-83-109.33-45.22,0-78.1,36.17-89.61,72.34-4.11,10.69-5.75,23-5.75,35.35v240h-70.7Z" transform="translate(-87.97 -171.84)"/><path class="cls-85" d="M101.78,298.56c0-41.1-.82-74.81-3.29-107.69h63.3L165.08,255h2.46c22.2-37.81,59.19-73.16,125-73.16,54.25,0,95.36,32.88,112.62,79.74h1.65c12.33-22.2,28-39.46,44.39-51.79,23.84-18.09,50.14-27.95,88-27.95,52.61,0,130.71,34.53,130.71,172.63V588.75h-70.7V363.51c0-76.46-28-122.49-86.32-122.49-41.1,0-73.16,30.41-85.49,65.76A119.11,119.11,0,0,0,421.56,343v245.8h-70.7V350.35c0-63.3-27.95-109.33-83-109.33-45.22,0-78.1,36.17-89.61,72.34-4.11,10.69-5.75,23-5.75,35.35v240h-70.7Z" transform="translate(-87.97 -171.84)"/><path class="cls-86" d="M101.32,298.12c0-41.1-.82-74.81-3.29-107.69h63.3l3.29,64.12h2.46c22.2-37.81,59.19-73.16,125-73.16,54.25,0,95.36,32.88,112.62,79.74h1.65c12.33-22.2,27.94-39.46,44.39-51.79,23.84-18.09,50.14-28,88-28,52.61,0,130.71,34.53,130.71,172.63V588.31h-70.7V363.07c0-76.46-27.95-122.49-86.32-122.49-41.1,0-73.16,30.41-85.49,65.76a119.11,119.11,0,0,0-5.76,36.17v245.8H350.4V349.91c0-63.3-27.95-109.33-83-109.33-45.22,0-78.1,36.17-89.61,72.34-4.11,10.69-5.75,23-5.75,35.35v240h-70.7Z" transform="translate(-87.97 -171.84)"/><path class="cls-87" d="M100.86,297.68c0-41.1-.82-74.81-3.29-107.69h63.3l3.29,64.12h2.46c22.2-37.81,59.19-73.16,125-73.16,54.25,0,95.36,32.88,112.62,79.74h1.64c12.34-22.2,28-39.46,44.4-51.79,23.84-18.09,50.14-28,88-28,52.61,0,130.71,34.52,130.71,172.63V587.87h-70.7V362.63c0-76.46-28-122.49-86.32-122.49-41.1,0-73.16,30.41-85.49,65.76a119.11,119.11,0,0,0-5.76,36.17v245.8h-70.7V349.47c0-63.3-27.95-109.33-83-109.33-45.22,0-78.1,36.17-89.61,72.34-4.11,10.69-5.75,23-5.75,35.35v240h-70.7Z" transform="translate(-87.97 -171.84)"/><path class="cls-88" d="M100.4,297.24c0-41.1-.82-74.81-3.29-107.69h63.3l3.29,64.12h2.46c22.2-37.81,59.19-73.16,125-73.16,54.25,0,95.36,32.88,112.62,79.74h1.64c12.34-22.2,27.95-39.46,44.4-51.79,23.84-18.09,50.14-28,88-28,52.61,0,130.71,34.52,130.71,172.63V587.43h-70.7V362.18c0-76.45-28-122.48-86.32-122.48-41.1,0-73.16,30.41-85.49,65.76a119.11,119.11,0,0,0-5.76,36.17v245.8h-70.7V349c0-63.3-28-109.33-83-109.33-45.21,0-78.09,36.17-89.6,72.34-4.11,10.69-5.75,23-5.75,35.35v240H100.4Z" transform="translate(-87.97 -171.84)"/><path class="cls-89" d="M99.94,296.8c0-41.1-.83-74.81-3.29-107.69H160l3.29,64.12h2.46c22.2-37.81,59.19-73.16,125-73.16,54.25,0,95.36,32.88,112.62,79.74h1.64c12.34-22.2,27.95-39.46,44.4-51.79,23.83-18.09,50.14-28,88-28C589.89,180.07,668,214.59,668,352.7V587h-70.7V361.74c0-76.45-27.95-122.48-86.32-122.48-41.1,0-73.16,30.41-85.5,65.76a119.43,119.43,0,0,0-5.75,36.17V587H349V348.59c0-63.3-27.95-109.33-83-109.33-45.21,0-78.09,36.17-89.6,72.34-4.11,10.68-5.76,23-5.76,35.35V587H99.94Z" transform="translate(-87.97 -171.84)"/><path class="cls-90" d="M99.48,296.36c0-41.1-.83-74.81-3.29-107.69h63.3l3.29,64.12h2.46c22.2-37.82,59.19-73.16,125-73.16,54.25,0,95.36,32.88,112.62,79.74h1.64c12.33-22.2,28-39.46,44.39-51.79,23.84-18.09,50.15-28,88-28,52.61,0,130.7,34.52,130.7,172.63V586.55H596.83V361.3c0-76.45-28-122.48-86.32-122.48-41.1,0-73.16,30.41-85.5,65.76a119.43,119.43,0,0,0-5.75,36.17v245.8h-70.7V348.15c0-63.3-27.95-109.33-83-109.33-45.21,0-78.09,36.17-89.6,72.34-4.11,10.68-5.76,23-5.76,35.35v240H99.48Z" transform="translate(-87.97 -171.84)"/><path class="cls-91" d="M99,295.92c0-41.1-.83-74.81-3.29-107.69H159l3.29,64.12h2.46c22.2-37.82,59.19-73.16,125-73.16,54.25,0,95.35,32.88,112.62,79.74H404c12.33-22.2,27.95-39.46,44.39-51.79,23.84-18.09,50.15-27.95,88-27.95,52.61,0,130.7,34.52,130.7,172.63V586.11H596.37V360.86c0-76.45-28-122.49-86.32-122.49-41.1,0-73.16,30.42-85.5,65.77a119.38,119.38,0,0,0-5.75,36.17v245.8H348.1V347.71c0-63.3-28-109.34-83-109.34-45.21,0-78.09,36.18-89.6,72.35-4.11,10.68-5.76,23-5.76,35.34V586.11H99Z" transform="translate(-87.97 -171.84)"/><path class="cls-92" d="M98.56,295.48c0-41.11-.83-74.81-3.29-107.69h63.3l3.28,64.12h2.47c22.2-37.82,59.19-73.17,125-73.17,54.25,0,95.35,32.89,112.62,79.74h1.64c12.33-22.19,27.95-39.45,44.39-51.78,23.84-18.09,50.15-28,88-28,52.61,0,130.7,34.53,130.7,172.64V585.67H595.91V360.42c0-76.45-27.95-122.49-86.32-122.49-41.1,0-73.17,30.42-85.5,65.77a119.38,119.38,0,0,0-5.75,36.17v245.8h-70.7V347.27c0-63.3-27.95-109.34-83-109.34-45.21,0-78.09,36.17-89.6,72.35-4.11,10.68-5.76,23-5.76,35.34v240H98.56Z" transform="translate(-87.97 -171.84)"/><path class="cls-93" d="M98.1,295c0-41.11-.83-74.81-3.29-107.69h63.3l3.28,64.12h2.47c22.2-37.82,59.19-73.17,125-73.17,54.25,0,95.35,32.89,112.62,79.74h1.64c12.33-22.19,27.95-39.45,44.39-51.79,23.84-18.08,50.15-27.95,88-27.95,52.62,0,130.71,34.53,130.71,172.64V585.23H595.45V360c0-76.45-28-122.49-86.32-122.49-41.1,0-73.17,30.42-85.5,65.77a119.38,119.38,0,0,0-5.75,36.17v245.8h-70.7V346.83c0-63.3-27.95-109.34-83-109.34-45.21,0-78.09,36.17-89.6,72.34-4.11,10.69-5.76,23-5.76,35.35V585.23H98.1Z" transform="translate(-87.97 -171.84)"/><path class="cls-94" d="M97.63,294.6c0-41.11-.82-74.81-3.28-107.69h63.3L160.93,251h2.47c22.2-37.82,59.19-73.17,125-73.17,54.26,0,95.36,32.89,112.63,79.74h1.64C415,235.41,430.57,218.15,447,205.81c23.84-18.08,50.15-27.95,88-27.95,52.62,0,130.71,34.53,130.71,172.64V584.79H595V359.54c0-76.45-28-122.49-86.32-122.49-41.1,0-73.17,30.42-85.5,65.77A119.38,119.38,0,0,0,417.42,339v245.8h-70.7V346.39c0-63.3-28-109.34-83-109.34-45.21,0-78.09,36.17-89.6,72.34-4.11,10.69-5.76,23-5.76,35.35v240H97.63Z" transform="translate(-87.97 -171.84)"/><path class="cls-95" d="M97.17,294.16c0-41.11-.82-74.81-3.28-107.69h63.3l3.28,64.12h2.47c22.2-37.82,59.19-73.17,125-73.17,54.26,0,95.36,32.89,112.63,79.74h1.64c12.33-22.19,27.95-39.46,44.39-51.79,23.84-18.08,50.15-28,88-28,52.62,0,130.71,34.53,130.71,172.64V584.35H594.53V359.1c0-76.45-28-122.49-86.32-122.49-41.1,0-73.17,30.42-85.5,65.77A119.07,119.07,0,0,0,417,338.55v245.8h-70.7V346c0-63.3-27.95-109.34-83-109.34-45.21,0-78.09,36.17-89.6,72.34-4.11,10.69-5.76,23-5.76,35.35V584.35H97.17Z" transform="translate(-87.97 -171.84)"/><path class="cls-96" d="M96.71,293.72c0-41.11-.82-74.81-3.28-107.7h63.3L160,250.15h2.47c22.19-37.82,59.19-73.17,125-73.17,54.26,0,95.36,32.88,112.63,79.74h1.64c12.33-22.19,27.95-39.46,44.39-51.79,23.84-18.08,50.15-28,88-28,52.62,0,130.71,34.53,130.71,172.64V583.91h-70.7V358.66c0-76.45-27.95-122.49-86.31-122.49-41.11,0-73.17,30.42-85.5,65.77a119,119,0,0,0-5.75,36.17v245.8H345.8V345.51c0-63.3-27.95-109.34-83-109.34-45.21,0-78.1,36.17-89.6,72.34-4.11,10.69-5.76,23-5.76,35.35v240H96.71Z" transform="translate(-87.97 -171.84)"/><path class="cls-97" d="M96.25,293.28c0-41.11-.82-74.81-3.28-107.7h63.29l3.29,64.13H162c22.19-37.82,59.19-73.17,125-73.17,54.26,0,95.36,32.88,112.63,79.74h1.64c12.33-22.19,27.95-39.46,44.39-51.79,23.84-18.08,50.15-28,88-28,52.62,0,130.71,34.53,130.71,172.64V583.46H593.6V358.22c0-76.45-28-122.49-86.31-122.49-41.11,0-73.17,30.42-85.5,65.77A119,119,0,0,0,416,337.67V583.46h-70.7V345.07c0-63.3-27.95-109.34-83-109.34-45.21,0-78.1,36.17-89.6,72.34-4.11,10.69-5.76,23-5.76,35.35v240H96.25Z" transform="translate(-87.97 -171.84)"/><path class="cls-98" d="M95.79,292.84c0-41.11-.82-74.81-3.28-107.7H155.8l3.29,64.13h2.47c22.19-37.82,59.19-73.17,125-73.17,54.26,0,95.36,32.88,112.63,79.74h1.64c12.33-22.19,28-39.46,44.39-51.79,23.84-18.08,50.15-28,88-28,52.62,0,130.71,34.53,130.71,172.64V583h-70.7V357.78c0-76.45-27.95-122.49-86.31-122.49-41.11,0-73.17,30.42-85.5,65.77a119,119,0,0,0-5.75,36.17V583h-70.7V344.63c0-63.3-27.95-109.34-83-109.34-45.21,0-78.1,36.17-89.6,72.34-4.12,10.69-5.76,23-5.76,35.35V583H95.79Z" transform="translate(-87.97 -171.84)"/><path class="cls-99" d="M95.33,292.39c0-41.1-.82-74.8-3.29-107.69h63.3l3.29,64.12h2.47c22.19-37.81,59.19-73.16,125-73.16,54.26,0,95.36,32.88,112.62,79.74h1.65c12.33-22.2,27.95-39.46,44.39-51.79,23.84-18.08,50.15-28,88-28,52.61,0,130.71,34.53,130.71,172.64V582.58h-70.7V357.34c0-76.45-27.95-122.49-86.31-122.49-41.11,0-73.17,30.42-85.5,65.77a119,119,0,0,0-5.75,36.17V582.58h-70.7V344.18c0-63.29-27.95-109.33-83-109.33-45.21,0-78.1,36.17-89.61,72.34-4.11,10.69-5.75,23-5.75,35.35v240H95.33Z" transform="translate(-87.97 -171.84)"/><path class="cls-100" d="M94.87,292c0-41.1-.82-74.8-3.29-107.69h63.3l3.29,64.12h2.47c22.19-37.81,59.19-73.16,125-73.16,54.26,0,95.36,32.88,112.62,79.74h1.65c12.33-22.2,27.95-39.46,44.39-51.79,23.84-18.08,50.15-27.95,88-27.95,52.61,0,130.71,34.53,130.71,172.63V582.14h-70.7V356.9c0-76.46-28-122.49-86.31-122.49-41.11,0-73.17,30.42-85.5,65.76a119.14,119.14,0,0,0-5.75,36.18V582.14H344V343.74c0-63.3-27.95-109.33-83-109.33-45.21,0-78.1,36.17-89.61,72.34-4.11,10.69-5.75,23-5.75,35.35v240H94.87Z" transform="translate(-87.97 -171.84)"/><path class="cls-101" d="M94.41,291.51c0-41.1-.82-74.8-3.29-107.69h63.3l3.29,64.12h2.47c22.19-37.81,59.19-73.16,125-73.16,54.26,0,95.36,32.88,112.62,79.74h1.65c12.33-22.2,28-39.46,44.39-51.79,23.84-18.09,50.15-27.95,88-27.95,52.61,0,130.71,34.53,130.71,172.63V581.7h-70.7V356.46c0-76.46-28-122.49-86.31-122.49-41.11,0-73.17,30.42-85.5,65.76a119.12,119.12,0,0,0-5.75,36.17V581.7H343.5V343.3c0-63.3-27.95-109.33-83-109.33-45.21,0-78.1,36.17-89.61,72.34-4.11,10.69-5.75,23-5.75,35.35v240H94.41Z" transform="translate(-87.97 -171.84)"/><path class="cls-102" d="M94,291.07c0-41.1-.82-74.81-3.29-107.69H154l3.29,64.12h2.47c22.19-37.81,59.19-73.16,125-73.16,54.26,0,95.36,32.88,112.62,79.74h1.65c12.33-22.2,27.95-39.46,44.39-51.79,23.84-18.09,50.15-27.95,88-27.95C583.9,174.34,662,208.87,662,347V581.26H591.3V356c0-76.46-27.95-122.49-86.31-122.49-41.11,0-73.17,30.41-85.5,65.76a119.12,119.12,0,0,0-5.75,36.17v245.8H343V342.86c0-63.3-28-109.33-83-109.33-45.21,0-78.1,36.17-89.61,72.34-4.11,10.69-5.75,23-5.75,35.35v240H94Z" transform="translate(-87.97 -171.84)"/></g></svg>